<svg width="101" height="67" viewBox="0 0 101 67" fill="none" xmlns="http://www.w3.org/2000/svg">
<path d="M24.9623 22.221C24.8975 22.5988 24.7576 22.9537 24.6176 23.3072C23.4523 26.2497 20.8063 28.603 17.5179 29.3033C16.4762 29.5251 15.4284 29.5934 14.3666 29.4832C12.2086 29.2589 10.3209 28.4293 8.71262 26.9848C7.17965 25.6081 6.17444 23.9131 5.6903 21.9133C5.49184 21.0932 5.41802 20.2613 5.4324 19.4193C5.49568 15.8166 7.6058 12.4467 10.9383 10.7894C11.1295 10.6945 11.3299 10.6181 11.526 10.5328C11.6074 10.5433 11.6755 10.5218 11.722 10.4498C11.7402 10.4345 11.7608 10.4288 11.7843 10.4321C11.8682 10.4464 11.9411 10.4321 11.9871 10.352L11.9924 10.3505C12.0969 10.3615 12.1961 10.3572 12.2618 10.257L12.2642 10.2565C12.3691 10.2699 12.4698 10.2699 12.5388 10.1702L12.5455 10.1688C12.675 10.1716 12.8101 10.1974 12.9051 10.0729L12.9065 10.0724C13.057 10.0891 13.2037 10.0738 13.3485 10.0252C13.4041 10.0066 13.4645 10.0008 13.5234 9.99178C13.533 9.99035 13.5498 9.99989 13.5546 10.009C13.5603 10.019 13.5618 10.0381 13.5555 10.0471C13.5158 10.1087 13.4184 10.1134 13.4021 10.1998C13.3662 10.2179 13.3302 10.2365 13.2943 10.2542C13.2516 10.2456 13.22 10.2556 13.2142 10.3052C12.9717 10.465 12.7229 10.6158 12.4875 10.7851C10.7293 12.0546 9.61046 13.7452 9.11912 15.8505C8.90197 16.7812 8.85451 17.7238 8.96668 18.6655C9.40577 22.357 12.0643 25.1262 15.3977 25.9635C16.4192 26.2201 17.4599 26.285 18.4991 26.15C20.9798 25.8275 22.9638 24.6482 24.4431 22.637C24.5606 22.4772 24.6694 22.3112 24.782 22.1485C24.8309 22.1304 24.8554 22.096 24.8525 22.0431L24.8515 22.044C24.9364 22.0745 24.9383 22.1547 24.9623 22.221Z" fill="#03A753"/>
<path d="M13.6468 51.6556C14.164 51.6556 14.7776 51.6694 15.3897 51.6517C16.1088 51.6308 16.8283 51.6136 17.5464 51.5463C18.2328 51.4819 18.9192 51.419 19.6023 51.3274C21.1391 51.1213 22.6515 50.8136 24.0943 50.2263C25.0315 49.8452 25.9331 49.3934 26.8089 48.8887C28.0418 48.1788 29.2642 47.4513 30.4745 46.7042C30.6174 46.616 30.7569 46.5211 30.9242 46.4829C30.9366 46.48 30.9611 46.4848 30.9644 46.4929C30.9745 46.5163 30.9894 46.5516 30.9793 46.5669C30.7751 46.8707 30.568 47.1727 30.36 47.4742C30.2986 47.5634 30.2186 47.6307 30.1189 47.6798C29.733 47.8692 29.3802 48.112 29.0288 48.3567C28.1631 48.9597 27.2974 49.5637 26.4269 50.1595C25.4538 50.8255 24.4457 51.4313 23.3657 51.9141C22.5959 52.2581 21.7997 52.5281 20.9958 52.779C20.0289 53.081 19.04 53.2871 18.0353 53.4102C17.0617 53.5294 16.0829 53.5867 15.1026 53.6086C13.9843 53.6334 12.8664 53.5938 11.7481 53.5786C11.3962 53.5738 11.0444 53.5595 10.6925 53.5499C10.6379 53.5485 10.5794 53.6077 10.5751 53.6663C10.5708 53.7269 10.5631 53.7875 10.566 53.8481C10.635 55.5249 10.2918 57.1178 9.58715 58.6382C9.3561 59.1372 9.09149 59.6176 8.79621 60.0817C8.3322 60.8102 7.76128 61.4413 7.05232 61.9427C6.50873 62.3272 5.91433 62.6001 5.25714 62.726C4.81757 62.81 4.37129 62.8319 3.93076 62.7575C3.28795 62.6492 2.76066 62.3239 2.33355 61.8363C2.0886 61.5568 1.92083 61.2319 1.78661 60.8899C1.62411 60.4758 1.53063 60.0445 1.49852 59.6013C1.44483 58.8528 1.4942 58.1086 1.62027 57.3697C1.66102 57.1297 1.7219 56.8926 1.76072 56.6522C1.88152 55.908 2.17537 55.2206 2.45531 54.5279C2.46681 54.5002 2.48695 54.4759 2.50229 54.4497C2.52961 54.4024 2.61685 54.3604 2.65712 54.381C2.71464 54.4105 2.74724 54.4597 2.75538 54.5246C2.77024 54.6481 2.74532 54.7664 2.71512 54.8857C2.63315 55.2106 2.55693 55.5369 2.474 55.8613C2.37574 56.2458 2.30959 56.6374 2.26309 57.03C2.19981 57.5619 2.19742 58.0943 2.32445 58.621C2.41121 58.9802 2.55501 59.3132 2.76785 59.6176C2.98452 59.9272 3.27021 60.149 3.61822 60.2916C3.88906 60.4028 4.17236 60.4653 4.46572 60.4825C5.87502 60.5631 7.08539 60.0908 8.11744 59.1572C8.97932 58.3777 9.54113 57.4126 9.81244 56.2839C9.89777 55.9276 9.95289 55.5674 9.96632 55.2001C9.99316 54.4664 9.95673 53.7379 9.8182 53.0156C9.80094 52.9264 9.78224 52.8329 9.79183 52.7447C9.83306 52.3664 9.87811 51.9881 9.97446 51.6184C9.98789 51.5673 10.056 51.5134 10.1111 51.5148C10.2026 51.5172 10.2947 51.5172 10.3853 51.5301C10.7961 51.5893 11.2093 51.6012 11.623 51.6098C12.2653 51.6241 12.9081 51.6389 13.6468 51.6556Z" fill="#08A956"/>
<path d="M41.5576 22.3727C41.5576 21.0766 41.5576 19.7804 41.5576 18.4843C41.5576 18.3469 41.5581 18.21 41.5615 18.0726C41.5638 17.9643 41.6175 17.918 41.7379 17.9142C41.7685 17.9133 41.7992 17.9128 41.8299 17.9128C42.9027 17.9128 43.976 17.9118 45.0488 17.9128C45.5099 17.9133 45.9682 17.9476 46.4144 18.0707C47.9407 18.4914 48.9464 19.4465 49.372 20.9721C49.6443 21.9482 49.639 22.9318 49.3433 23.9041C48.9258 25.2751 48.0102 26.1677 46.6541 26.6228C46.1709 26.785 45.669 26.8518 45.1619 26.8551C44.0431 26.8627 42.9238 26.8575 41.805 26.857C41.7594 26.857 41.7134 26.8513 41.6679 26.8465C41.6166 26.8413 41.5782 26.8036 41.5739 26.7621C41.5615 26.6414 41.5586 26.5193 41.5586 26.3976C41.5576 25.0562 41.5576 23.7142 41.5576 22.3727ZM44.0483 22.408C44.0483 23.0172 44.0479 23.626 44.0488 24.2351C44.0488 24.3568 44.0527 24.4784 44.056 24.6001C44.0574 24.6578 44.1116 24.707 44.1763 24.7065C44.5128 24.7055 44.8508 24.7194 45.1858 24.6969C45.8402 24.6535 46.3478 24.353 46.6891 23.7881C46.8003 23.6045 46.8789 23.4084 46.9355 23.2014C47.0501 22.7835 47.0625 22.3584 47.0122 21.9329C46.9762 21.63 46.889 21.3375 46.7442 21.0651C46.5439 20.6887 46.2515 20.4101 45.8608 20.2346C45.6062 20.1201 45.3364 20.0676 45.0593 20.0605C44.7841 20.0533 44.5085 20.0581 44.2329 20.06C44.0992 20.0609 44.0531 20.1129 44.0498 20.2608C44.0474 20.3672 44.0483 20.4741 44.0479 20.5805C44.0479 21.1901 44.0483 21.7988 44.0483 22.408Z" fill="#030303"/>
<path d="M62.2744 24.4784C62.2744 25.1339 62.2744 25.7894 62.2744 26.4443C62.2744 26.5359 62.2734 26.6271 62.2705 26.7186C62.2681 26.7945 62.2053 26.8537 62.1176 26.8537C61.5357 26.8551 60.9533 26.8551 60.3713 26.8541C60.2894 26.8541 60.2304 26.7926 60.2275 26.7091C60.2242 26.6175 60.2285 26.5259 60.2222 26.4348C60.2175 26.3652 60.2467 26.2764 60.1551 26.2416C60.0899 26.2168 60.043 26.2716 59.9941 26.306C59.6 26.5803 59.1686 26.7678 58.6965 26.8608C58.6365 26.8727 58.5766 26.8875 58.5157 26.8937C57.5446 26.9891 56.6233 26.8288 55.7705 26.3437C55.0294 25.922 54.4911 25.3099 54.122 24.55C53.832 23.9527 53.68 23.3197 53.6503 22.6566C53.6278 22.1514 53.6493 21.6504 53.7855 21.161C54.1445 19.8682 54.9335 18.9208 56.1367 18.3264C57.0403 17.8798 57.999 17.7558 58.998 17.9008C59.6767 17.9996 60.3009 18.2281 60.8622 18.6207C61.1776 18.8411 61.4638 19.0949 61.6833 19.4116C61.9863 19.8491 61.9935 19.7632 61.5889 20.0733C61.1277 20.4263 60.6657 20.7779 60.2031 21.129C60.1331 21.182 60.0679 21.1672 60.0118 21.0875C59.9854 21.0503 59.9639 21.0098 59.9375 20.9721C59.6168 20.5141 59.1758 20.2264 58.6351 20.0991C57.8811 19.9216 57.2445 20.1325 56.7316 20.7087C56.5988 20.8576 56.4948 21.0274 56.4143 21.2097C56.0993 21.9262 56.0691 22.6585 56.3332 23.3922C56.5207 23.9131 56.8562 24.3167 57.3778 24.549C57.6045 24.6501 57.8375 24.7069 58.0862 24.7193C58.8177 24.7565 59.4356 24.508 59.9538 24.0014C59.9696 23.9856 59.9706 23.9494 59.9691 23.9231C59.9672 23.8878 59.9409 23.8783 59.9025 23.8783C59.7649 23.8788 59.6269 23.8745 59.4893 23.8745C58.6183 23.8735 58.6087 23.8768 58.5905 23.8172C58.5042 23.5353 58.5637 23.2448 58.5522 22.9585C58.5426 22.7152 58.5512 22.471 58.5541 22.2272C58.5551 22.1409 58.6126 22.0817 58.6936 22.0779C58.7545 22.075 58.8158 22.0731 58.8772 22.0731C59.904 22.0726 60.9303 22.0726 61.957 22.0731C62.0179 22.0731 62.0793 22.0769 62.1401 22.0803C62.2001 22.0836 62.2605 22.1375 62.2629 22.1924C62.2677 22.2988 62.2724 22.4051 62.2724 22.5115C62.2748 23.1675 62.2744 23.8229 62.2744 24.4784Z" fill="#060505"/>
<path d="M38.2188 58.5843C38.259 57.8969 38.3391 57.2161 38.4929 56.5454C38.7489 55.4305 39.0639 54.3323 39.4387 53.2514C39.4732 53.1512 39.5164 53.0534 39.5643 52.9589C39.5935 52.9007 39.6559 52.884 39.7196 52.8802C39.7853 52.8759 39.8514 52.9198 39.8524 52.9742C39.8567 53.2027 39.8471 53.4264 39.78 53.6516C39.6587 54.0604 39.5614 54.4764 39.4574 54.89C39.2973 55.5274 39.2086 56.1762 39.1415 56.8288C39.0893 57.3344 39.1453 57.8334 39.246 58.3281C39.2824 58.507 39.3289 58.684 39.3759 58.8605C39.3994 58.9483 39.432 59.0342 39.4651 59.1196C39.7287 59.7975 40.2282 60.2053 40.9281 60.3876C41.4942 60.535 42.0531 60.5016 42.6053 60.3303C43.4576 60.066 44.1901 59.6104 44.7845 58.9445C44.9676 58.7393 45.1435 58.5275 45.3127 58.311C45.5212 58.0443 45.6751 57.748 45.7743 57.4227C45.8194 57.2748 45.8419 57.1255 45.8482 56.9733C45.8558 56.7873 45.7628 56.6508 45.6075 56.5607C45.5294 56.5153 45.4393 56.4881 45.3525 56.4605C45.1339 56.3903 44.9129 56.3264 44.6944 56.2573C44.5328 56.2062 44.3813 56.1332 44.2462 56.0297C44.007 55.8465 43.8564 55.617 43.7912 55.3151C43.5453 54.1702 43.8608 52.6255 44.7222 51.6714C44.9676 51.3994 45.2183 51.1309 45.48 50.8742C45.6459 50.7115 45.7882 50.5364 45.9066 50.3389C46.1813 49.88 46.4076 49.3963 46.642 48.9164C46.7958 48.6015 46.955 48.2886 47.1237 47.9814C47.2709 47.7133 47.4526 47.4676 47.6539 47.2362C47.8188 47.0468 48.0235 46.9214 48.256 46.8307C48.4779 46.7444 48.7061 46.7353 48.9347 46.773C49.1509 46.8083 49.3431 46.9042 49.4879 47.075C49.5564 47.1561 49.6149 47.2457 49.6787 47.3311C49.7065 47.3683 49.7583 47.3641 49.7875 47.3221C49.8397 47.2467 49.892 47.1718 49.9428 47.0955C50.333 46.5049 50.81 45.9911 51.3488 45.5327C52.1613 44.8414 53.0845 44.3376 54.0715 43.9422C54.1271 43.9197 54.1908 43.9088 54.2503 43.9097C54.2925 43.9107 54.3486 43.9298 54.372 43.9608C54.3951 43.9908 54.3998 44.0524 54.385 44.0886C54.3567 44.1578 54.3126 44.2217 54.268 44.2828C54.0245 44.6153 53.7748 44.944 53.5351 45.2793C53.4431 45.4081 53.3362 45.505 53.1885 45.566C52.9057 45.6829 52.6258 45.8074 52.3453 45.9296C51.8061 46.1647 51.3257 46.4882 50.9044 46.8956C50.7731 47.0225 50.6604 47.168 50.5406 47.3063C50.5329 47.3154 50.5382 47.3354 50.5377 47.3507C50.5362 47.3822 50.5559 47.4046 50.5942 47.4008C50.7007 47.3903 50.8066 47.3741 50.9125 47.3612C51.0976 47.3392 51.2807 47.3521 51.46 47.3994C51.7332 47.4709 51.9125 47.6431 51.9973 47.9122C52.0932 48.2165 52.0755 48.5185 51.9489 48.8067C51.3698 50.1252 50.4135 50.9877 48.9553 51.2401C48.5153 51.3164 48.0719 51.3403 47.627 51.3207C47.3763 51.3098 47.1434 51.3532 46.9123 51.4481C46.6861 51.5411 46.4521 51.6151 46.2225 51.7005C46.0936 51.7482 45.9666 51.8011 45.8391 51.8536C45.317 52.0683 44.9618 52.4551 44.7111 52.946C44.656 53.0534 44.6229 53.1726 44.5855 53.2881C44.5338 53.4489 44.587 53.5877 44.6891 53.7127C44.7677 53.809 44.8636 53.8854 44.9781 53.9331C45.1052 53.986 45.236 54.0285 45.3645 54.0771C45.5217 54.1363 45.6804 54.1935 45.8352 54.2584C46.0102 54.3319 46.1377 54.4616 46.2403 54.6186C46.3419 54.7741 46.4162 54.9415 46.4579 55.12C46.5202 55.3876 46.5715 55.66 46.5504 55.9357C46.4445 57.3211 46.1209 58.6425 45.3784 59.8394C45.0064 60.4391 44.5764 60.992 44.0597 61.4767C43.6326 61.8774 43.1556 62.2047 42.6269 62.4589C42.1015 62.7118 41.5431 62.7781 40.9693 62.7347C40.7871 62.7208 40.605 62.6827 40.4271 62.6373C39.9665 62.5195 39.5993 62.2524 39.2824 61.9079C38.9033 61.4953 38.6435 61.0154 38.4824 60.483C38.3765 60.1323 38.2983 59.775 38.2768 59.4072C38.2605 59.1315 38.2379 58.8581 38.2188 58.5843ZM48.4031 47.8931C48.3758 47.8969 48.3154 47.9026 48.2555 47.9131C48.1136 47.9384 48.0029 48.0181 47.9041 48.1168C47.6539 48.3673 47.4502 48.6535 47.2953 48.9698C47.0811 49.4068 46.8812 49.8504 46.6765 50.2922C46.6611 50.3256 46.675 50.3537 46.7072 50.3685C46.7196 50.3742 46.7354 50.3819 46.747 50.3785C47.0993 50.2722 47.442 50.1395 47.7579 49.9521C48.1423 49.724 48.4793 49.4368 48.7281 49.0609C48.8115 48.9345 48.8844 48.7985 48.9429 48.6593C49.0709 48.353 48.8125 47.916 48.4031 47.8931ZM48.5934 50.5145C49.1797 50.4892 49.6796 50.3127 50.1461 50.0327C50.3301 49.922 50.4989 49.7913 50.6479 49.6358C50.831 49.445 50.9634 49.2246 51.0333 48.9693C51.0487 48.9126 51.0583 48.8458 51.0429 48.7904C50.9753 48.5419 50.7946 48.3845 50.5564 48.3792C50.3311 48.3745 50.1322 48.4379 49.9716 48.5972C49.8738 48.6941 49.7832 48.7976 49.6911 48.8997C49.2722 49.3662 48.904 49.8729 48.5234 50.369C48.5062 50.3914 48.4995 50.4229 48.4918 50.4511C48.4884 50.4639 48.4928 50.4902 48.499 50.4921C48.5421 50.5054 48.5862 50.5131 48.5934 50.5145Z" fill="#08A956"/>
<path d="M84.8516 33.8487C84.8516 32.5383 84.8516 31.2278 84.8521 29.9178C84.8521 29.7809 84.8545 29.6435 84.8574 29.5066C84.8588 29.4441 84.9101 29.3854 84.9648 29.3821C85.0256 29.3783 85.0865 29.3721 85.1479 29.373C85.4992 29.3778 85.8506 29.384 86.2025 29.3902C86.4704 29.6216 86.6598 29.9188 86.8783 30.1912C88.1007 31.7153 89.3173 33.2443 90.5368 34.7709C90.6221 34.8777 90.7151 34.9784 90.8062 35.0809C90.8124 35.0881 90.8321 35.0872 90.8445 35.0843C90.8589 35.0809 90.8838 35.0728 90.8843 35.0652C90.8901 34.9588 90.8958 34.8524 90.8958 34.7465C90.8963 33.1312 90.8949 31.5164 90.8972 29.9011C90.8982 29.3201 90.8263 29.3845 91.4015 29.383C91.7845 29.3821 92.1671 29.3854 92.5501 29.3935C92.5827 29.394 92.62 29.4417 92.644 29.4756C92.6598 29.4975 92.6579 29.5343 92.6584 29.5643C92.6603 29.6712 92.6603 29.7776 92.6603 29.8844C92.6603 32.5359 92.6608 35.1869 92.6598 37.8383C92.6598 37.9747 92.6522 38.1117 92.6411 38.2481C92.6392 38.271 92.6071 38.2982 92.5822 38.3115C92.5572 38.3249 92.5242 38.3282 92.4945 38.3282C92.1115 38.3292 91.7284 38.3278 91.3459 38.3292C91.2625 38.3292 91.1992 38.2944 91.1484 38.2333C91.0899 38.1627 91.0324 38.0916 90.9749 38.0205C89.6332 36.3571 88.291 34.6941 86.9488 33.0311C86.8817 32.9481 86.8112 32.8679 86.7408 32.7882C86.7345 32.7811 86.7149 32.7844 86.7019 32.7835C86.6622 32.7806 86.6449 32.7992 86.6439 32.8388C86.6406 32.9757 86.632 33.1122 86.632 33.2491C86.631 34.7422 86.6315 36.2354 86.6315 37.7286C86.6315 37.8354 86.6305 37.9418 86.6315 38.0487C86.6344 38.3354 86.5835 38.3311 86.3434 38.3316C85.945 38.3325 85.5467 38.3321 85.1488 38.3316C85.1028 38.3316 85.0568 38.3316 85.0108 38.3297C84.9264 38.3268 84.8612 38.2696 84.8593 38.1937C84.8555 38.0568 84.8526 37.9199 84.8526 37.783C84.8512 36.4692 84.8516 35.1587 84.8516 33.8487Z" fill="#060505"/>
<path d="M91.9155 10.9416C91.9155 12.2525 91.9155 13.5639 91.9151 14.8749C91.9151 15.0118 91.917 15.1497 91.9055 15.2861C91.9026 15.3181 91.8513 15.3476 91.8197 15.3753C91.8101 15.3839 91.7899 15.3825 91.7751 15.3825C91.3767 15.3829 90.9784 15.3834 90.5801 15.3834C90.5158 15.3834 90.4607 15.3624 90.419 15.3123C90.3409 15.2184 90.2622 15.1249 90.186 15.0299C88.8721 13.4013 87.5587 11.7721 86.2443 10.144C86.1585 10.0376 86.0684 9.93453 85.9778 9.83197C85.972 9.82529 85.9476 9.83197 85.9337 9.83674C85.9217 9.84055 85.9039 9.84962 85.9025 9.85868C85.892 9.91784 85.8785 9.97795 85.8781 10.0376C85.8757 10.3577 85.8766 10.6778 85.8766 10.9979C85.8766 12.3088 85.8771 13.6202 85.8761 14.9312C85.8761 15.0528 85.8694 15.174 85.8646 15.2956C85.8632 15.3348 85.8143 15.3777 85.7697 15.3782C85.5555 15.3815 85.3412 15.3853 85.1269 15.3858C84.1596 15.3868 84.1505 15.3882 84.137 15.3281C84.0666 15.0132 84.1088 14.6936 84.1083 14.3764C84.104 11.9067 84.1059 9.43697 84.1064 6.9668C84.1064 6.82988 84.1112 6.69297 84.1155 6.55605C84.1174 6.50024 84.1768 6.44395 84.2368 6.44347C84.6198 6.44061 85.0028 6.43631 85.3858 6.44156C85.439 6.44252 85.5046 6.4802 85.5425 6.52123C85.6456 6.63334 85.7371 6.75642 85.832 6.87568C87.156 8.53534 88.48 10.195 89.8045 11.8542C89.8802 11.9491 89.9617 12.0393 90.0422 12.1304C90.0513 12.1409 90.0743 12.1538 90.082 12.1495C90.1064 12.1361 90.1443 12.1161 90.1453 12.0965C90.1525 11.9596 90.1529 11.8222 90.1529 11.6853C90.1534 10.0843 90.1529 8.48382 90.1534 6.88283C90.1534 6.43202 90.1218 6.45397 90.5681 6.45587C90.9818 6.45778 91.3954 6.46207 91.8091 6.46589C91.8441 6.46637 91.8992 6.52028 91.9026 6.55224C91.9074 6.59756 91.9146 6.6424 91.9155 6.68772C91.9175 6.79458 91.9165 6.90096 91.9165 7.00782C91.9155 8.31924 91.9155 9.63065 91.9155 10.9416Z" fill="#030303"/>
<path d="M74.2775 26.8585C73.9252 26.8585 73.5729 26.8594 73.2206 26.8575C73.176 26.857 73.129 26.8489 73.0887 26.8318C73.0662 26.8222 73.0379 26.7836 73.0413 26.7631C73.0542 26.6886 73.0753 26.6147 73.1002 26.5431C74.0652 23.7844 75.0311 21.026 75.997 18.2677C76.0272 18.1814 76.0603 18.0965 76.0919 18.0106C76.1164 17.9448 76.1724 17.9252 76.2343 17.9147C76.2491 17.9123 76.265 17.9133 76.2803 17.9133C76.9389 17.9133 77.5976 17.9138 78.2562 17.9138C78.343 17.9138 78.401 17.9576 78.4283 18.0364C78.55 18.3808 78.6699 18.7257 78.7902 19.0706C79.6521 21.5427 80.5135 24.0152 81.3749 26.4873C81.4051 26.5737 81.431 26.661 81.4578 26.7483C81.4679 26.7817 81.4209 26.8432 81.384 26.847C81.3389 26.8513 81.2934 26.8585 81.2483 26.8585C80.5743 26.8594 79.9004 26.859 79.2264 26.859C79.1804 26.859 79.1344 26.857 79.0888 26.8532C79.0232 26.847 78.97 26.816 78.9498 26.753C78.8247 26.3614 78.7025 25.9692 78.5788 25.5771C78.5424 25.4607 78.5059 25.3448 78.4685 25.2289C78.4475 25.1635 78.3928 25.1373 78.3324 25.122C78.3032 25.1144 78.272 25.1129 78.2418 25.1129C77.5678 25.1129 76.8939 25.1129 76.2199 25.1148C76.1106 25.1153 76.0454 25.1645 76.0152 25.2618C75.8944 25.6544 75.7746 26.0475 75.6547 26.4411C75.6327 26.514 75.6149 26.588 75.591 26.6605C75.5339 26.8341 75.5047 26.858 75.3345 26.859C75.0589 26.8613 74.7833 26.8599 74.5076 26.8599C74.4305 26.8589 74.3542 26.8589 74.2775 26.8585C74.2775 26.8589 74.2775 26.8585 74.2775 26.8585ZM77.2615 20.8519C77.2337 20.8863 77.2102 20.903 77.2035 20.9244C76.9595 21.7254 76.717 22.5268 76.4744 23.3288C76.4581 23.3822 76.5133 23.4409 76.5813 23.4409C77.0103 23.4423 77.4394 23.4423 77.8684 23.4428C77.8837 23.4428 77.8991 23.4399 77.9144 23.439C77.9729 23.4347 78.0146 23.3707 77.9969 23.3087C77.7831 22.5621 77.5702 21.8151 77.354 21.0694C77.3334 20.9979 77.2956 20.9311 77.2615 20.8519Z" fill="#060505"/>
<path d="M41.7236 10.9306C41.7236 9.59012 41.7231 8.2496 41.7241 6.90909C41.7241 6.78744 41.7265 6.66531 41.7404 6.5451C41.7447 6.51027 41.7898 6.45971 41.8233 6.45303C41.9125 6.43585 42.0055 6.4349 42.0966 6.4349C43.2604 6.43394 44.4243 6.43251 45.5882 6.4349C46.8781 6.43728 47.7635 7.07749 48.2985 8.20476C48.716 9.08444 48.6714 9.97796 48.227 10.8457C47.9998 11.2903 47.6695 11.6433 47.2328 11.8948C47.1672 11.9324 47.101 11.9706 47.0406 12.0164C47.0238 12.0293 47.0138 12.0756 47.0238 12.0951C47.078 12.2034 47.136 12.3103 47.1993 12.4138C47.7371 13.2997 48.2769 14.1846 48.8157 15.07C48.8555 15.1349 48.8938 15.2007 48.9322 15.2666C48.9552 15.3061 48.9302 15.3686 48.8919 15.3729C48.8766 15.3748 48.8622 15.3825 48.8468 15.3825C48.2802 15.3834 47.7136 15.3839 47.147 15.3849C47.0627 15.3849 46.9999 15.3486 46.9572 15.2794C46.7894 15.007 46.6231 14.7337 46.4563 14.4603C46.0982 13.8755 45.7401 13.2906 45.3821 12.7057C45.3341 12.628 45.2895 12.5474 45.2359 12.4739C45.1994 12.4238 45.1419 12.3928 45.0791 12.3899C44.9569 12.3847 44.8342 12.3852 44.7119 12.3852C44.3596 12.3852 44.0077 12.3856 43.6554 12.388C43.5533 12.3885 43.4905 12.4539 43.4872 12.5598C43.4833 12.6814 43.4829 12.8035 43.4829 12.9252C43.4824 13.6107 43.4829 14.2962 43.4829 14.9818C43.4829 15.0428 43.4833 15.1034 43.4824 15.1645C43.479 15.3524 43.4517 15.3839 43.2791 15.3858C43.0495 15.3882 42.8199 15.3868 42.5898 15.3868C42.3602 15.3868 42.1306 15.3872 41.9005 15.3849C41.7792 15.3834 41.7284 15.3362 41.726 15.2265C41.7236 15.1048 41.7236 14.9827 41.7231 14.8611C41.7236 13.5506 41.7236 12.2406 41.7236 10.9306ZM43.4819 9.41409C43.4819 9.65738 43.4805 9.9002 43.4819 10.1435C43.4833 10.341 43.4872 10.538 43.4915 10.735C43.4929 10.7932 43.5514 10.8514 43.6056 10.8562C43.6358 10.8586 43.666 10.8634 43.6966 10.8634C44.3227 10.8638 44.9492 10.8634 45.5752 10.8648C46.0527 10.8658 46.3839 10.6344 46.6059 10.2284C46.7099 10.039 46.7602 9.83341 46.7851 9.62065C46.8398 9.15934 46.7247 8.74574 46.4227 8.39129C46.1946 8.12318 45.9017 7.97768 45.5417 7.97959C45.1294 7.9815 44.7167 7.97959 44.3045 7.98007C44.0753 7.98055 43.8467 7.98198 43.6176 7.98436C43.5543 7.98484 43.4992 8.03588 43.4929 8.09361C43.4881 8.13893 43.4819 8.18425 43.4814 8.22957C43.4814 8.62409 43.4819 9.01909 43.4819 9.41409Z" fill="#060505"/>
<path d="M53.5974 6.38626C55.1265 6.3729 56.2094 6.95348 57.0616 7.98486C57.6489 8.69519 57.9743 9.52049 58.0927 10.4355C58.3008 12.0422 57.5319 13.7314 56.264 14.635C55.3125 15.3129 54.255 15.5781 53.094 15.4078C51.7116 15.2055 50.6963 14.4594 49.9912 13.2849C49.5257 12.5097 49.3081 11.6582 49.3412 10.7527C49.4068 8.95662 50.5745 7.14191 52.5337 6.54989C52.9335 6.42967 53.3409 6.37815 53.5974 6.38626ZM56.3373 10.9097C56.346 10.59 56.3095 10.2728 56.217 9.96367C56.1025 9.58155 55.9404 9.22186 55.6902 8.90605C55.1955 8.28159 54.558 7.95004 53.7498 7.94765C52.8663 7.94527 52.19 8.32309 51.6919 9.0339C51.596 9.17033 51.5155 9.31965 51.4451 9.47088C51.1311 10.1421 51.0654 10.8481 51.19 11.5699C51.2845 12.1185 51.5045 12.617 51.8712 13.0469C52.7647 14.0935 54.303 14.1617 55.2569 13.3798C55.6073 13.0927 55.8676 12.7425 56.0502 12.3318C56.2511 11.88 56.3517 11.4077 56.3373 10.9097Z" fill="#060505"/>
<path d="M74.5606 33.8902C74.5117 35.4253 73.9101 36.6705 72.6715 37.5859C72.0311 38.0592 71.3044 38.3168 70.5038 38.3759C69.2968 38.4651 68.2326 38.1269 67.33 37.3278C66.5506 36.638 66.0583 35.7736 65.868 34.7513C65.5607 33.0969 66.0348 31.6786 67.2246 30.5003C67.7777 29.9526 68.4498 29.5896 69.2158 29.425C70.6817 29.1101 71.9783 29.4503 73.0775 30.4716C73.866 31.2044 74.3157 32.1237 74.5026 33.1722C74.5448 33.4103 74.5429 33.6569 74.5606 33.8902ZM72.7846 33.9045C72.7788 33.2882 72.6552 32.7419 72.3776 32.2377C71.9443 31.4501 71.2972 30.9692 70.3787 30.89C69.8936 30.848 69.4334 30.932 69.0049 31.1643C68.4277 31.4773 68.0462 31.96 67.8094 32.5611C67.5328 33.2629 67.4815 33.9818 67.6646 34.7141C67.7806 35.1782 67.9791 35.6038 68.2921 35.9711C68.9694 36.7659 69.9574 37.0058 70.9122 36.7291C71.4304 36.5789 71.834 36.2588 72.1523 35.8308C72.5871 35.246 72.7659 34.5791 72.7846 33.9045Z" fill="#060505"/>
<path d="M74.2634 10.9454C74.2634 12.3022 74.2634 13.6584 74.2629 15.0151C74.2629 15.1067 74.2667 15.1993 74.2533 15.2885C74.2481 15.3219 74.2016 15.3667 74.167 15.3739C74.0932 15.3892 74.0151 15.3853 73.9384 15.3853C73.5094 15.3849 73.0803 15.3839 72.6513 15.3815C72.5622 15.381 72.5157 15.33 72.5128 15.2394C72.5113 15.1936 72.5104 15.1478 72.5104 15.1024C72.5099 14.8739 72.5104 14.645 72.5104 14.4164C72.5104 13.5783 72.5104 12.7396 72.5099 11.9014C72.5099 11.8251 72.5061 11.7493 72.5032 11.6729C72.5022 11.6481 72.4366 11.5885 72.4088 11.5861C72.3479 11.5813 72.287 11.5737 72.2261 11.5732C71.0766 11.5723 69.9276 11.5723 68.7781 11.5732C68.7024 11.5732 68.6262 11.5828 68.5504 11.5918C68.4968 11.5985 68.4718 11.6476 68.469 11.6877C68.4594 11.8089 68.4608 11.9315 68.4608 12.0531C68.4603 13.0592 68.4608 14.0653 68.4603 15.071C68.4603 15.1473 68.4608 15.2236 68.4512 15.299C68.4483 15.3238 68.4191 15.3524 68.3947 15.3663C68.3697 15.3801 68.3357 15.3825 68.306 15.3825C67.8156 15.383 67.3252 15.3825 66.8348 15.381C66.7433 15.3806 66.7025 15.3352 66.6992 15.2398C66.6982 15.2093 66.6973 15.1788 66.6973 15.1482C66.6968 15.0719 66.6968 14.9956 66.6968 14.9197C66.6968 12.2521 66.6968 9.58487 66.6973 6.9172C66.6973 6.79555 66.7016 6.6739 66.7064 6.55225C66.7088 6.49405 66.7658 6.44301 66.8272 6.43872C66.8425 6.43776 66.8578 6.4349 66.8732 6.4349C67.3329 6.43442 67.7926 6.43347 68.2523 6.4349C68.2969 6.4349 68.3434 6.44349 68.3846 6.45923C68.4086 6.46877 68.4378 6.49882 68.4412 6.52268C68.4527 6.61284 68.4594 6.70396 68.4598 6.7946C68.4613 7.73963 68.4603 8.68467 68.4608 9.62971C68.4608 9.7361 68.4656 9.84295 68.4699 9.94934C68.4718 10.0009 68.5102 10.0319 68.5519 10.0457C68.5945 10.0595 68.6425 10.0586 68.6885 10.0586C69.8835 10.0591 71.079 10.0591 72.2741 10.0586C72.3201 10.0586 72.3656 10.0538 72.4116 10.05C72.4428 10.0476 72.4979 9.99132 72.4994 9.95792C72.5037 9.83628 72.5099 9.71463 72.5099 9.59298C72.5109 8.69374 72.5104 7.7945 72.5104 6.89525C72.5104 6.78839 72.5114 6.68201 72.5142 6.57515C72.5166 6.49405 72.5751 6.43776 72.6638 6.43776C73.1542 6.43681 73.6441 6.43776 74.1344 6.43967C74.1953 6.43967 74.2524 6.49548 74.2543 6.55416C74.2586 6.69108 74.2629 6.82799 74.2629 6.9649C74.2639 8.29301 74.2634 9.61922 74.2634 10.9454Z" fill="#030303"/>
<path d="M62.5027 15.4903C61.0047 15.477 59.8557 15.1535 58.7988 14.5095C58.734 14.4699 58.6712 14.4251 58.6137 14.3759C58.5797 14.3473 58.5552 14.3067 58.5811 14.2562C58.8107 13.8087 59.0399 13.3612 59.27 12.9142C59.2896 12.8756 59.3467 12.8641 59.3864 12.8904C59.4631 12.94 59.5384 12.9925 59.6161 13.0411C60.2689 13.4552 60.9702 13.7496 61.7377 13.8698C62.1792 13.9389 62.6216 13.949 63.0607 13.8321C63.2112 13.792 63.3478 13.7305 63.4739 13.6403C63.8291 13.386 63.8612 12.8422 63.6163 12.5359C63.5204 12.4162 63.4034 12.3198 63.2687 12.2411C63.0828 12.1323 62.8867 12.0484 62.6815 11.9854C62.2722 11.8604 61.8614 11.7393 61.4505 11.62C61.0977 11.5174 60.7473 11.4091 60.4079 11.267C60.2095 11.184 60.0202 11.0862 59.839 10.9712C59.303 10.6296 58.9895 10.1464 58.9172 9.51524C58.8625 9.03724 58.9181 8.56973 59.096 8.12273C59.3054 7.59559 59.663 7.18676 60.1525 6.89432C60.5791 6.63958 61.0421 6.47738 61.533 6.42347C62.2535 6.34428 62.9715 6.36766 63.6719 6.58615C64.2299 6.76027 64.7581 6.99737 65.2456 7.32081C65.3055 7.3604 65.3189 7.41335 65.2835 7.47823C65.0639 7.87943 64.8439 8.28063 64.6224 8.68088C64.5745 8.76723 64.5371 8.7739 64.4417 8.70664C64.1532 8.50294 63.844 8.33931 63.5156 8.20765C63.1139 8.04688 62.6993 7.94527 62.2683 7.92237C61.9299 7.90424 61.5939 7.93382 61.277 8.06835C61.0738 8.15469 60.9137 8.29161 60.8164 8.49435C60.6524 8.83592 60.6716 9.31631 61.0824 9.59062C61.2746 9.71894 61.4812 9.81865 61.7022 9.884C62.0248 9.97941 62.3489 10.0705 62.6743 10.1554C63.0895 10.2633 63.4993 10.3868 63.902 10.5328C64.2049 10.6425 64.493 10.7828 64.7557 10.9722C65.2825 11.3524 65.5864 11.858 65.63 12.5087C65.6564 12.9052 65.6545 13.2992 65.5332 13.6861C65.3765 14.1856 65.0807 14.5806 64.655 14.8811C64.3909 15.0681 64.0985 15.1993 63.7884 15.2919C63.2836 15.4421 62.7678 15.497 62.5027 15.4903Z" fill="#060505"/>
<path d="M75.5048 32.0694C75.5048 31.307 75.5043 30.5452 75.5052 29.7829C75.5052 29.6765 75.512 29.5701 75.5172 29.4637C75.5191 29.427 75.5709 29.3821 75.6107 29.3802C75.6716 29.3769 75.7329 29.3726 75.7938 29.3721C76.1768 29.3712 76.5598 29.3707 76.9433 29.3721C77.2602 29.3731 77.2602 29.3745 77.2626 29.7123C77.263 29.8039 77.2626 29.895 77.2626 29.9866C77.2626 31.2059 77.2611 32.4257 77.2635 33.6451C77.264 33.9041 77.2726 34.1631 77.2856 34.4217C77.3009 34.727 77.3565 35.0271 77.4524 35.3176C77.4998 35.4617 77.555 35.6048 77.624 35.7398C77.9821 36.4401 78.5573 36.8094 79.3482 36.8351C80.3161 36.8671 80.9603 36.3962 81.3208 35.6143C81.5015 35.2217 81.5734 34.8005 81.605 34.3735C81.6194 34.176 81.6189 33.9776 81.6194 33.7796C81.6204 32.4839 81.6199 31.1883 81.6204 29.8926C81.6204 29.7557 81.6199 29.6178 81.6319 29.4818C81.6348 29.4475 81.6817 29.4155 81.7119 29.386C81.721 29.3774 81.7412 29.3774 81.7565 29.3774C82.2469 29.3764 82.7368 29.3759 83.2272 29.3764C83.3115 29.3764 83.3595 29.4308 83.3609 29.5229C83.3633 29.645 83.3633 29.7666 83.3633 29.8888C83.3633 30.529 83.3633 31.1692 83.3633 31.8094C83.3633 32.587 83.3624 33.3641 83.3633 34.1417C83.3643 34.7409 83.2655 35.3248 83.0829 35.8948C82.9611 36.2741 82.7857 36.6285 82.5503 36.9525C82.0643 37.6218 81.4162 38.0545 80.6133 38.2539C80.1047 38.3803 79.5874 38.4204 79.064 38.375C78.7279 38.3459 78.3934 38.3121 78.0708 38.2047C77.0536 37.866 76.334 37.2048 75.9127 36.2245C75.7061 35.7441 75.5968 35.2379 75.5441 34.7208C75.5163 34.4484 75.5086 34.1732 75.5062 33.8993C75.5009 33.2892 75.5048 32.679 75.5048 32.0694Z" fill="#060505"/>
<path d="M70.177 17.9128C71.3111 17.9128 72.4453 17.9123 73.5789 17.9132C73.6858 17.9132 73.7932 17.9194 73.8991 17.9304C73.9226 17.9328 73.949 17.9652 73.9619 17.9901C73.9749 18.0153 73.9773 18.0483 73.9773 18.0778C73.9778 18.6875 73.9782 19.2972 73.9773 19.9068C73.9773 20.0032 73.9327 20.05 73.845 20.0543C73.799 20.0566 73.7534 20.0585 73.7074 20.0585C73.4927 20.059 73.2784 20.059 73.0636 20.059C72.6039 20.059 72.1442 20.0585 71.6845 20.0595C71.6237 20.0595 71.5599 20.0576 71.5019 20.0729C71.4621 20.0834 71.4195 20.1144 71.4171 20.1678C71.4127 20.2894 71.4065 20.4111 71.4065 20.5327C71.406 22.4533 71.4084 24.3744 71.4046 26.295C71.4032 26.9314 71.4966 26.8537 70.8505 26.8575C70.3141 26.8603 69.7777 26.8584 69.2413 26.8575C69.165 26.8575 69.0874 26.8556 69.0131 26.8413C68.9714 26.8332 68.9306 26.8002 68.9292 26.7468C68.9249 26.6099 68.9196 26.473 68.9196 26.3361C68.9191 24.4155 68.9206 22.4944 68.9187 20.5738C68.9182 20.0027 68.9853 20.0605 68.4067 20.059C67.8243 20.0576 67.2419 20.059 66.6595 20.0581C66.5833 20.0581 66.5046 20.0605 66.4313 20.0447C66.3968 20.0371 66.3695 19.9899 66.3426 19.9574C66.3345 19.9479 66.3383 19.9278 66.3383 19.9126C66.3393 19.2876 66.3397 18.6627 66.3412 18.0378C66.3412 17.9776 66.3953 17.9214 66.4534 17.9199C66.5909 17.9161 66.729 17.9123 66.8666 17.9123C67.97 17.9123 69.0735 17.9128 70.177 17.9128Z" fill="#030303"/>
<path d="M48.2944 38.3263C48.0513 38.2963 47.7426 38.3864 47.4445 38.2824C47.3376 38.0139 47.2283 37.7462 47.1252 37.4762C46.9675 37.0636 46.8127 36.6495 46.6588 36.2354C46.6277 36.1514 46.562 36.1223 46.4834 36.1161C46.4071 36.1099 46.3305 36.1128 46.2538 36.1128C45.4259 36.1128 44.5985 36.1123 43.7707 36.1133C43.7098 36.1133 43.648 36.1152 43.5876 36.1223C43.5243 36.1295 43.4735 36.1577 43.4491 36.223C43.2635 36.723 43.078 37.2224 42.8916 37.7224C42.8278 37.8936 42.7645 38.0654 42.6936 38.2338C42.6787 38.2696 42.6303 38.3149 42.5968 38.3154C42.0455 38.3192 41.4947 38.3173 40.9435 38.313C40.9286 38.313 40.8975 38.2681 40.9018 38.251C40.9272 38.1484 40.955 38.0458 40.9928 37.9471C42.0469 35.2021 43.1025 32.4576 44.158 29.7132C44.1853 29.6421 44.2146 29.572 44.2419 29.5009C44.2711 29.4236 44.3191 29.3749 44.4087 29.3754C44.5468 29.3764 44.6844 29.3735 44.8224 29.3735C45.1139 29.3735 45.4048 29.3768 45.6963 29.3735C45.8075 29.3721 45.865 29.4336 45.8995 29.5238C46.166 30.2212 46.4302 30.9191 46.6967 31.6166C47.4905 33.6946 48.2848 35.7722 49.0791 37.8498C49.1169 37.9495 49.1577 38.0482 49.1941 38.1484C49.2392 38.2724 49.208 38.3268 49.0891 38.3273C48.8442 38.3278 48.5988 38.3263 48.2944 38.3263ZM45.0396 31.4988C45.0141 31.5527 44.9863 31.6028 44.9667 31.6557C44.5933 32.668 44.2208 33.6803 43.8488 34.6931C43.8388 34.7208 43.8364 34.7513 43.833 34.7809C43.8292 34.8186 43.845 34.8415 43.8766 34.8462C43.9217 34.8524 43.9672 34.861 44.0128 34.861C44.6853 34.862 45.3583 34.862 46.0309 34.8615C46.0764 34.8615 46.1219 34.8543 46.1675 34.851C46.1977 34.8486 46.2461 34.7833 46.2379 34.7537C46.2216 34.695 46.2082 34.6354 46.1876 34.5781C45.8492 33.6178 45.5103 32.6575 45.1714 31.6972C45.1469 31.6257 45.1186 31.5551 45.0396 31.4988Z" fill="#060505"/>
<path d="M82.4829 15.3835C82.2226 15.3835 81.9618 15.3849 81.7015 15.3825C81.6172 15.382 81.5611 15.3367 81.5309 15.257C81.3128 14.6717 81.0942 14.0868 80.8751 13.502C80.843 13.4166 80.8042 13.3336 80.7735 13.2472C80.7543 13.1938 80.7083 13.1823 80.6656 13.1771C80.5899 13.1675 80.5127 13.168 80.4365 13.168C79.5938 13.1675 78.7511 13.1675 77.9084 13.168C77.847 13.168 77.7862 13.1699 77.7253 13.1752C77.6591 13.1809 77.6126 13.2186 77.5887 13.2797C77.5498 13.3789 77.5129 13.4791 77.476 13.5788C77.2915 14.0787 77.1069 14.5791 76.9224 15.0791C76.896 15.1507 76.8677 15.2213 76.8389 15.2919C76.8131 15.3553 76.7608 15.382 76.6956 15.3815C76.1602 15.3787 75.6243 15.3749 75.0888 15.3706C75.0481 15.3701 75.0289 15.3477 75.0404 15.3109C75.0716 15.2098 75.1008 15.1082 75.1387 15.0094C76.0207 12.7053 76.9037 10.4016 77.7871 8.09792C77.9563 7.65712 78.126 7.2168 78.2962 6.77648C78.3293 6.69109 78.359 6.60427 78.4026 6.52412C78.4218 6.4893 78.4673 6.45733 78.5071 6.44684C78.5651 6.43157 78.6284 6.43444 78.6893 6.43444C79.0416 6.43348 79.3939 6.433 79.7467 6.43444C79.9711 6.43539 79.9782 6.44016 80.0693 6.67678C80.3215 7.33034 80.5717 7.98485 80.8224 8.63937C81.6224 10.7303 82.4225 12.8212 83.2211 14.9131C83.2695 15.04 83.3093 15.1702 83.35 15.3C83.3611 15.3357 83.3419 15.361 83.3083 15.3668C83.2633 15.3744 83.2182 15.3844 83.1731 15.3849C82.9435 15.3868 82.7134 15.3858 82.4838 15.3858C82.4829 15.3854 82.4829 15.3844 82.4829 15.3835ZM79.1648 11.9344C79.1648 11.931 79.1648 11.9282 79.1648 11.9248C79.4706 11.9248 79.776 11.9253 80.0818 11.9243C80.158 11.9239 80.2342 11.9191 80.3104 11.9148C80.3536 11.9124 80.3953 11.859 80.3838 11.8213C80.3617 11.7488 80.3411 11.6763 80.3162 11.6052C79.9912 10.6893 79.6657 9.77332 79.3402 8.85786C79.3148 8.78678 79.2928 8.71379 79.2621 8.64509C79.2511 8.62029 79.2204 8.59834 79.1935 8.58928C79.1811 8.58499 79.147 8.6117 79.1399 8.63078C78.7616 9.65692 78.3853 10.684 78.01 11.7111C77.9947 11.7531 77.9865 11.7975 77.976 11.8409C77.9664 11.8795 77.9822 11.9038 78.022 11.9048C78.4026 11.9148 78.7837 11.9243 79.1648 11.9344Z" fill="#060505"/>
<path d="M61.8744 29.3282C62.3715 29.3325 62.8724 29.384 63.3537 29.5576C64.1897 29.8596 64.8483 30.3777 65.3009 31.1458C65.3584 31.2435 65.3454 31.3113 65.2496 31.3776C64.948 31.5865 64.6489 31.7993 64.3412 31.9982C64.2434 32.0617 64.1595 32.1957 64.0277 32.1552C63.9256 32.1237 63.9045 31.9897 63.8455 31.9028C63.463 31.3418 62.9333 31.0165 62.2598 30.9187C61.9856 30.8786 61.7153 30.8695 61.4373 30.9067C60.9809 30.9678 60.5898 31.1553 60.2441 31.4472C59.9963 31.6567 59.7892 31.9028 59.6435 32.1914C59.0918 33.2858 59.0745 34.3864 59.645 35.4788C59.8985 35.964 60.2777 36.337 60.769 36.588C61.2321 36.8241 61.7191 36.9019 62.2383 36.8188C62.8034 36.7287 63.2861 36.4978 63.6792 36.0818C63.8173 35.9358 63.9165 35.765 64.0171 35.5943C64.0574 35.526 64.0996 35.5136 64.1672 35.5523C64.5794 35.786 64.9907 36.0203 65.402 36.2559C65.4667 36.2931 65.4777 36.3723 65.4403 36.4525C65.2826 36.7897 65.0511 37.0707 64.7745 37.3169C64.2621 37.7729 63.6634 38.0668 63.0038 38.2443C62.6476 38.3402 62.2828 38.3955 61.9157 38.406C61.2959 38.4236 60.6957 38.3154 60.132 38.0482C59.1872 37.5998 58.4801 36.9038 57.9926 35.9864C57.6815 35.4001 57.4955 34.7742 57.4466 34.113C57.3302 32.5354 58.0803 30.4693 60.2451 29.6106C60.7652 29.404 61.3083 29.3344 61.8744 29.3282Z" fill="#060505"/>
<path d="M55.7288 32.19C55.6871 32.1533 55.6478 32.1275 55.6214 32.0927C55.585 32.0445 55.5596 31.9877 55.527 31.9362C55.2188 31.4506 54.7845 31.1357 54.2289 30.9826C53.7457 30.849 53.2592 30.8375 52.7779 30.9721C52.2588 31.1166 51.8504 31.4291 51.5254 31.8532C51.29 32.1604 51.1332 32.5058 51.0292 32.875C50.7824 33.749 50.8533 34.5967 51.2689 35.4058C51.5872 36.026 52.0685 36.4787 52.7362 36.7162C53.1024 36.8465 53.4787 36.8947 53.8656 36.8231C54.0463 36.7897 54.227 36.762 54.401 36.6986C54.9072 36.5135 55.3113 36.2048 55.5922 35.7431C55.6162 35.7039 55.6387 35.6639 55.6622 35.6248C55.7298 35.5126 55.7518 35.506 55.8788 35.578C56.2642 35.797 56.6492 36.0174 57.0341 36.2373C57.0475 36.2449 57.0614 36.2516 57.0739 36.2597C57.1199 36.2893 57.1439 36.3728 57.1213 36.4205C56.9488 36.7845 56.7029 37.0917 56.397 37.3541C55.7767 37.8855 55.052 38.1922 54.2538 38.3335C53.7841 38.4165 53.3133 38.4346 52.8369 38.3578C52.4548 38.2962 52.091 38.1913 51.7459 38.021C50.5422 37.4271 49.7446 36.4768 49.3371 35.2164C48.8884 33.8301 49.0653 32.502 49.8562 31.276C50.5082 30.2656 51.4467 29.6344 52.6312 29.4083C53.4222 29.2571 54.2184 29.2866 54.9911 29.5505C55.7537 29.8109 56.3759 30.2627 56.827 30.9296C57.0681 31.2864 57.1118 31.2483 56.7153 31.5145C56.3846 31.7363 56.0586 31.9639 55.7288 32.19Z" fill="#060505"/>
<path d="M81.9815 22.3246C81.9815 20.9998 81.9815 19.675 81.982 18.3503C81.982 18.2439 81.9844 18.137 81.9877 18.0306C81.9896 17.9724 82.0448 17.9238 82.1085 17.919C82.1239 17.9181 82.1387 17.9138 82.1541 17.9138C82.8736 17.9138 83.5931 17.9142 84.3126 17.9157C84.3974 17.9157 84.4526 17.9734 84.4559 18.0559C84.4578 18.1017 84.4593 18.147 84.4593 18.1928C84.4597 18.3145 84.4597 18.4366 84.4597 18.5583C84.4597 20.4617 84.4597 22.3651 84.4602 24.2686C84.4602 24.3902 84.4626 24.5123 84.4717 24.6335C84.4736 24.6564 84.5101 24.6931 84.5331 24.695C84.6395 24.7051 84.7469 24.7079 84.8538 24.7084C85.9558 24.7094 87.0583 24.7089 88.1604 24.7094C88.2524 24.7094 88.344 24.7122 88.436 24.7146C88.4648 24.7156 88.5213 24.7766 88.5232 24.8072C88.5252 24.8372 88.5319 24.8677 88.5319 24.8978C88.5323 25.4917 88.5319 26.0857 88.5319 26.6796C88.5319 26.6948 88.5314 26.7101 88.5304 26.7254C88.5276 26.774 88.4619 26.8504 88.4192 26.8523C88.3579 26.8551 88.297 26.8585 88.2356 26.8585C86.2607 26.859 84.2862 26.859 82.3113 26.8585C82.2351 26.8585 82.1588 26.8513 82.0826 26.8465C82.0524 26.8446 81.9954 26.7855 81.9944 26.755C81.9901 26.6185 81.9834 26.4816 81.9834 26.3452C81.981 25.0047 81.9815 23.6646 81.9815 22.3246Z" fill="#060505"/>
<path d="M97.2692 29.372C98.3564 29.372 99.444 29.3716 100.531 29.3725C100.653 29.3725 100.776 29.3782 100.898 29.383C100.951 29.3854 100.973 29.4278 100.994 29.467C101 29.4794 101 29.497 101 29.5118C101 29.9383 100.999 30.3643 100.998 30.7908C100.997 30.8509 100.942 30.91 100.886 30.9119C100.779 30.9162 100.673 30.921 100.566 30.921C99.8764 30.922 99.1876 30.921 98.4983 30.9215C98.4062 30.9215 98.3147 30.9248 98.2226 30.9272C98.1991 30.9277 98.1397 30.9969 98.1392 31.0241C98.1354 31.1762 98.1291 31.3284 98.1287 31.4801C98.1282 33.5825 98.1282 35.6848 98.1277 37.7872C98.1277 37.9241 98.1234 38.061 98.1181 38.198C98.1157 38.2609 98.063 38.3172 98.0055 38.3191C97.8832 38.3234 97.761 38.3268 97.6388 38.3272C97.2711 38.3277 96.9034 38.3277 96.5362 38.3253C96.427 38.3249 96.3718 38.2676 96.3694 38.155C96.3661 38.0181 96.367 37.8807 96.367 37.7438C96.367 35.6567 96.3694 33.5696 96.3656 31.4825C96.3642 30.8347 96.4619 30.9258 95.8158 30.922C95.1418 30.9182 94.4678 30.9215 93.7943 30.9201C93.7181 30.9201 93.6414 30.9139 93.5666 30.9005C93.5432 30.8962 93.523 30.8604 93.5058 30.8366C93.4976 30.8256 93.4981 30.807 93.4981 30.7922C93.4967 30.3657 93.4952 29.9397 93.4957 29.5132C93.4957 29.4302 93.5542 29.3773 93.6405 29.3739C93.6865 29.372 93.7325 29.3715 93.778 29.3715C93.8701 29.3711 93.9616 29.3715 94.0537 29.3715C95.1255 29.372 96.1973 29.372 97.2692 29.372Z" fill="#060505"/>
<path d="M52.8495 22.3723C52.8495 23.729 52.8495 25.0857 52.849 26.4425C52.849 26.5489 52.8433 26.6557 52.8395 26.7621C52.8385 26.7931 52.7786 26.847 52.746 26.8484C52.7004 26.8508 52.6544 26.858 52.6089 26.858C51.9498 26.8589 51.2911 26.8589 50.632 26.858C50.5711 26.858 50.5079 26.8556 50.4503 26.8394C50.4096 26.8279 50.3698 26.7964 50.3684 26.7421C50.366 26.6662 50.3597 26.5904 50.3597 26.514C50.3593 23.7548 50.3593 20.996 50.3597 18.2367C50.3597 18.1608 50.3573 18.0831 50.3722 18.0096C50.3803 17.97 50.4163 17.93 50.469 17.9252C50.5146 17.9209 50.5601 17.9128 50.6052 17.9128C51.2796 17.9118 51.9536 17.9123 52.6281 17.9128C52.6587 17.9128 52.6894 17.9152 52.7201 17.9156C52.7767 17.9166 52.8428 17.9758 52.8433 18.0278C52.8457 18.1647 52.849 18.3021 52.849 18.439C52.8495 19.7504 52.8495 21.0613 52.8495 22.3723Z" fill="#060505"/>
<path d="M65.7016 22.3704C65.7016 23.6813 65.7016 24.9922 65.7016 26.3032C65.7016 26.4406 65.7016 26.5775 65.6992 26.7149C65.6978 26.795 65.6393 26.8489 65.5516 26.8532C65.4902 26.8561 65.4294 26.8585 65.368 26.8585C64.7549 26.8589 64.1423 26.8589 63.5292 26.8585C63.4678 26.8585 63.407 26.8547 63.3456 26.8513C63.279 26.8475 63.2258 26.7998 63.2229 26.7411C63.219 26.6653 63.2157 26.5894 63.2157 26.5131C63.2152 23.7543 63.2152 20.995 63.2157 18.2362C63.2157 18.1599 63.22 18.0841 63.2234 18.0077C63.2243 17.9824 63.2905 17.9261 63.3197 17.9238C63.3653 17.9204 63.4113 17.9137 63.4568 17.9137C64.1159 17.9133 64.7746 17.9133 65.4337 17.9133C65.4644 17.9133 65.495 17.9133 65.5257 17.9147C65.6489 17.919 65.6973 17.9615 65.6997 18.0726C65.7021 18.2095 65.7021 18.3469 65.7021 18.4843C65.7016 19.779 65.7016 21.0747 65.7016 22.3704Z" fill="#030303"/>
<path d="M56.6738 60.3203C56.577 60.3184 56.5051 60.3041 56.4461 60.2449C56.404 60.2025 56.3944 60.1247 56.4236 60.0794C56.4845 59.9859 56.5736 59.9267 56.669 59.8781C56.9964 59.7125 57.3248 59.5475 57.6555 59.3886C58.0966 59.1768 58.5404 58.9698 58.9834 58.7618C59.4455 58.5452 59.8519 58.2518 60.2129 57.8926C60.442 57.6646 60.639 57.4136 60.7972 57.1326C61.0518 56.6809 61.3049 56.2282 61.5589 55.7759C61.686 55.5493 61.8187 55.326 61.9956 55.1338C62.0987 55.0217 62.207 54.9129 62.324 54.8151C62.5128 54.6567 62.7257 54.5384 62.9678 54.474C63.0857 54.4425 63.2012 54.4015 63.3162 54.3591C63.4759 54.3004 63.6178 54.2102 63.7453 54.0981C63.8987 53.9641 64.0041 53.8038 64.054 53.602C64.1125 53.363 64.1431 53.123 64.1427 52.8783C64.1422 52.5124 64.1427 52.1465 64.1427 51.7806C64.1427 51.2015 64.1513 50.6218 64.1412 50.0432C64.1216 48.9188 64.5405 47.9632 65.261 47.1222C65.4614 46.8879 65.714 46.7138 65.9738 46.5497C66.4019 46.2797 66.8558 46.0593 67.3169 45.8527C68.1405 45.4835 68.965 45.1162 69.7918 44.7546C70.0588 44.6377 70.3196 44.5118 70.5684 44.361C70.6331 44.3219 70.7041 44.2928 70.774 44.2627C70.8181 44.2436 70.9039 44.2789 70.9255 44.3348C70.9399 44.3724 70.9466 44.433 70.926 44.4607C70.706 44.7536 70.486 45.0465 70.2535 45.3299C70.0675 45.5565 69.835 45.7235 69.5608 45.8442C68.4688 46.325 67.3812 46.8164 66.2926 47.3044C66.1253 47.3793 65.958 47.4552 65.7921 47.5348C65.6392 47.6083 65.5026 47.7061 65.3808 47.8234C65.1292 48.0667 64.9863 48.353 64.9743 48.7122C64.9451 49.5952 64.9039 50.4782 64.8588 51.3608C64.8209 52.1069 64.7524 52.8497 64.5966 53.5829C64.5012 54.0328 64.3713 54.4674 64.1273 54.8638C64.0233 55.0327 63.9418 55.2149 63.8383 55.3838C63.6221 55.7363 63.3234 55.9901 62.9093 56.0764C62.3547 56.1919 61.9424 56.5168 61.5925 56.9361C61.4357 57.1241 61.3044 57.3297 61.1893 57.5463C60.9396 58.0181 60.6822 58.486 60.4368 58.9598C60.2954 59.2326 60.1113 59.4759 59.931 59.7216C59.7892 59.9153 59.6017 60.0307 59.3544 60.0532C58.8966 60.0947 58.4402 60.1467 57.9829 60.1944C57.7394 60.2197 57.4959 60.2478 57.2519 60.2712C57.053 60.2907 56.8541 60.3055 56.6738 60.3203Z" fill="#08A956"/>
<path d="M31.3851 28.0549C31.3851 28.5267 31.3846 28.9986 31.3851 29.4704C31.3855 29.8172 31.2849 30.1311 31.0706 30.4044C30.7226 30.849 30.2562 31.0465 29.7011 30.9798C29.1077 30.9082 28.6858 30.5805 28.4644 30.0209C28.403 29.8658 28.3627 29.7017 28.3637 29.5314C28.3642 29.4856 28.3603 29.4403 28.3603 29.3945C28.3603 28.4967 28.3608 27.5984 28.3599 26.7006C28.3599 26.5012 28.3838 26.3065 28.4457 26.1162C28.6599 25.4593 29.3152 25.0123 30.0036 25.0905C30.8928 25.1912 31.3208 25.8223 31.3803 26.5026C31.3884 26.5933 31.3836 26.6853 31.3836 26.7764C31.3846 27.2024 31.3846 27.6289 31.3851 28.0549C31.3846 28.0549 31.3851 28.0549 31.3851 28.0549Z" fill="#82B355"/>
<path d="M19.2192 36.4161C19.1751 36.3155 19.1832 36.2086 19.1832 36.1032C19.1837 34.5752 19.1842 33.0477 19.187 31.5197C19.187 31.4152 19.2091 31.3107 19.2206 31.2063C20.2085 31.2048 21.197 31.2039 22.1849 31.2025C22.1912 31.3231 22.2027 31.4434 22.2031 31.5641C22.2055 33.061 22.2065 34.558 22.206 36.055C22.206 36.1752 22.1931 36.2959 22.1864 36.4161C21.1975 36.4161 20.2085 36.4161 19.2192 36.4161Z" fill="#6DB458"/>
<path d="M19.221 5.57961C19.209 5.47466 19.1869 5.36923 19.1865 5.26428C19.1836 4.25865 19.186 3.25255 19.1826 2.24693C19.1821 2.06183 19.2004 1.8796 19.2507 1.70452C19.4151 1.12729 19.7938 0.771882 20.3839 0.629243C21.0828 0.460367 21.8838 0.857751 22.1292 1.61579C22.1618 1.71644 22.1819 1.82235 22.1944 1.9273C22.2069 2.03273 22.2054 2.14007 22.2054 2.24693C22.2059 3.26782 22.2059 4.28871 22.204 5.31007C22.204 5.40119 22.192 5.49183 22.1858 5.58295C21.1974 5.58199 20.2089 5.58056 19.221 5.57961Z" fill="#E1AB2B"/>
<path d="M24.0252 8.8774C24.019 8.75623 24.0075 8.63506 24.0075 8.51389C24.0055 7.51065 24.0051 6.50741 24.0055 5.50417C24.0055 5.38252 24.0108 5.26135 24.0132 5.1397C24.0223 4.59204 24.495 3.98476 25.1627 3.82494C25.8592 3.65798 26.6784 4.07158 26.9052 4.74136C26.9392 4.84154 26.967 4.94506 26.9814 5.04906C26.9977 5.1688 27.001 5.2914 27.001 5.41305C27.002 6.49214 27.001 7.57123 26.9991 8.6508C26.9991 8.72617 26.9876 8.80202 26.9814 8.8774C25.9963 8.8774 25.0108 8.8774 24.0252 8.8774Z" fill="#D5AD32"/>
<path d="M17.3816 4.11938C17.3888 4.22529 17.4027 4.3312 17.4027 4.43758C17.4037 5.76283 17.4032 7.0876 17.4023 8.41285C17.4023 8.4887 17.3994 8.56503 17.396 8.64088C17.3922 8.72532 17.3323 8.78781 17.2527 8.78543C17.0998 8.78113 16.9445 8.78686 16.7944 8.76301C16.247 8.67523 15.6953 8.6986 15.145 8.68477C14.946 8.67952 14.7471 8.68668 14.5477 8.68668C14.4657 8.68668 14.4005 8.62657 14.3962 8.54929C14.3919 8.45817 14.3881 8.36705 14.3881 8.27546C14.3871 7.01127 14.3862 5.74709 14.3871 4.48338C14.3871 4.3622 14.4025 4.24103 14.4106 4.11986C15.4014 4.11938 16.3913 4.11938 17.3816 4.11938Z" fill="#D5AD32"/>
<path d="M2.96872 23.3335C2.97448 23.4699 2.9855 23.6064 2.98598 23.7428C2.9879 24.7165 2.98742 25.6897 2.98742 26.6633C2.98742 26.7545 2.98502 26.846 2.98598 26.9372C2.99029 27.4657 2.62071 28.0268 2.01097 28.2481C1.31543 28.5009 0.680764 28.2076 0.345216 27.8121C0.142449 27.5736 0.0178165 27.3007 0.00775001 26.983C0.00535324 26.9071 0.00439453 26.8308 0.00439453 26.7549C0.00439453 25.7359 0.00439453 24.717 0.00583259 23.6975C0.00583259 23.6069 0.0173371 23.5157 0.0230894 23.4251C0.270436 23.3421 0.524494 23.3297 0.783825 23.3316C1.51196 23.3368 2.24058 23.3335 2.96872 23.3335Z" fill="#91B24E"/>
<path d="M31.5379 54.932C31.5672 53.8514 31.5954 52.7714 31.6271 51.6909C31.6352 51.4156 31.6769 51.1437 31.7747 50.8851C31.931 50.4725 32.0978 50.0636 32.2608 49.6534C32.2661 49.64 32.2776 49.6281 32.2876 49.6171C32.3193 49.5832 32.3528 49.5551 32.4056 49.5685C32.4765 49.5861 32.5398 49.6329 32.5422 49.6734C32.5441 49.7035 32.5498 49.734 32.547 49.7636C32.5216 50.0059 32.4933 50.2478 32.4674 50.4896C32.3658 51.429 32.3011 52.3702 32.3063 53.3152C32.3102 54.0155 32.3121 54.7159 32.3284 55.4162C32.3394 55.888 32.3792 56.3583 32.4894 56.8201C32.5532 57.0887 32.65 57.3439 32.8001 57.5772C32.9645 57.8329 33.1965 57.9942 33.4903 58.0724C33.6936 58.1268 33.8868 58.1096 34.0622 57.9922C34.3474 57.8014 34.5828 57.5691 34.6868 57.2294C34.718 57.1278 34.7539 57.0267 34.8028 56.9327C34.8287 56.8826 34.8853 56.8468 34.9308 56.8082C34.9576 56.7858 35.0353 56.8111 35.0526 56.8397C35.1173 56.9485 35.1432 57.0668 35.1273 57.1903C35.1005 57.4017 35.0804 57.6149 35.0324 57.8219C34.9327 58.2527 34.787 58.6711 34.5991 59.0713C34.3949 59.505 34.0948 59.8647 33.7065 60.1552C33.2137 60.524 32.3859 60.3513 32.0758 59.8613C31.862 59.5231 31.7028 59.1653 31.6549 58.7622C31.6079 58.3686 31.5782 57.9746 31.5686 57.5786C31.5552 57.031 31.5298 56.4833 31.5226 55.9357C31.5183 55.6013 31.5379 55.2664 31.547 54.932C31.5442 54.932 31.5413 54.932 31.5379 54.932Z" fill="#08A956"/>
<path d="M22.1861 19.8568C22.1924 19.978 22.2039 20.0992 22.2044 20.2208C22.2063 21.1639 22.2058 22.1075 22.2058 23.0507C22.2058 23.1117 22.201 23.1728 22.2063 23.2334C22.2202 23.3879 22.1473 23.4924 22.0246 23.5754C21.759 23.7543 21.5035 23.9499 21.2293 24.115C20.6637 24.4551 20.0535 24.6955 19.4169 24.8702C19.3742 24.8816 19.3258 24.8826 19.2822 24.8759C19.2568 24.8721 19.2189 24.8463 19.2146 24.8253C19.1978 24.7371 19.1835 24.6464 19.1835 24.5567C19.1815 23.1113 19.182 21.6658 19.183 20.2208C19.183 20.0996 19.171 19.9766 19.2189 19.8602C20.2078 19.8582 21.1972 19.8573 22.1861 19.8568Z" fill="#A0B24B"/>
<path d="M12.5813 5.12588C12.5904 5.23179 12.6071 5.33769 12.6071 5.4436C12.6086 6.51076 12.6076 7.57841 12.6071 8.64557C12.6071 8.70663 12.6067 8.7677 12.6038 8.82828C12.598 8.95804 12.5549 9.01624 12.4192 9.05345C11.484 9.31153 10.601 9.69079 9.76217 10.1745C9.73677 10.1893 9.70417 10.2017 9.67685 10.1984C9.65288 10.1955 9.61645 10.1726 9.61214 10.1526C9.59919 10.0939 9.59488 10.0324 9.59488 9.97178C9.59344 8.44712 9.59296 6.92198 9.59344 5.39732C9.59344 5.30621 9.60686 5.21557 9.61405 5.12445C10.6034 5.1254 11.5923 5.12588 12.5813 5.12588Z" fill="#D5AD32"/>
<path d="M2.9689 23.3335C2.24076 23.3335 1.51214 23.3369 0.784005 23.3316C0.525153 23.3297 0.270616 23.3421 0.0232692 23.4251C0.0170376 23.3197 0.00505377 23.2148 0.00457441 23.1093C0.0036157 21.795 0.0036157 20.4803 0.00505377 19.166C0.00505377 19.0606 0.0160789 18.9552 0.0223105 18.8497C1.00499 18.8497 1.98718 18.8497 2.96986 18.8497C2.97561 18.9552 2.98664 19.0606 2.98664 19.1655C2.98808 20.4498 2.98808 21.7335 2.98712 23.0177C2.98664 23.1232 2.97513 23.2281 2.9689 23.3335Z" fill="#A0B24B"/>
<path d="M2.96992 18.8497C1.98724 18.8497 1.00505 18.8497 0.0223703 18.8497C0.0161387 18.7443 0.00511356 18.6394 0.00511356 18.5339C0.00415485 17.2502 0.00415485 15.966 0.00511356 14.6822C0.00511356 14.5768 0.0170974 14.4718 0.023329 14.3664C1.00505 14.3664 1.98724 14.3664 2.96896 14.3664C2.97519 14.4718 2.9867 14.5768 2.98718 14.6822C2.98862 15.966 2.98814 17.2497 2.98718 18.5339C2.98718 18.6389 2.97567 18.7443 2.96992 18.8497Z" fill="#BBB143"/>
<path d="M17.3818 16.9291C17.389 17.0494 17.4019 17.1696 17.4024 17.2898C17.4038 18.4824 17.4038 19.675 17.4024 20.8677C17.4024 20.9879 17.389 21.1081 17.3818 21.2283C16.3914 21.2283 15.4006 21.2283 14.4103 21.2279C14.4021 21.1076 14.3872 20.9879 14.3872 20.8677C14.3853 19.675 14.3853 18.4824 14.3868 17.2898C14.3868 17.1696 14.4016 17.0498 14.4098 16.9296C15.4006 16.9291 16.3914 16.9291 17.3818 16.9291Z" fill="#ADB146"/>
<path d="M12.5811 5.1259C11.5922 5.1259 10.6033 5.12543 9.61436 5.12543C9.60765 5.03431 9.59519 4.94367 9.59471 4.85255C9.59279 3.95331 9.59615 3.05407 9.59088 2.15482C9.58944 1.93777 9.6158 1.72739 9.70113 1.52941C9.91492 1.03327 10.2787 0.716512 10.8247 0.623487C11.4038 0.524738 11.8793 0.704586 12.2633 1.14013C12.4847 1.39154 12.5768 1.69351 12.606 2.01934C12.6113 2.07993 12.6079 2.14099 12.6079 2.20205C12.6075 3.07076 12.6079 3.93947 12.6055 4.80819C12.6055 4.91409 12.5897 5.02 12.5811 5.1259Z" fill="#E1AB2B"/>
<path d="M24.0255 8.87744C25.0111 8.87744 25.9966 8.87744 26.9822 8.87744C26.9889 8.98239 27.0009 9.08782 27.0009 9.19277C27.0018 10.4155 27.0014 11.6386 26.9999 12.8613C26.9999 12.9667 26.9889 13.0717 26.9827 13.1771C25.9966 13.1771 25.0106 13.1771 24.0241 13.1771C24.0183 13.0717 24.0073 12.9667 24.0068 12.8613C24.0054 11.6386 24.0049 10.4155 24.0059 9.19277C24.0068 9.08782 24.0193 8.98239 24.0255 8.87744Z" fill="#C6AF3A"/>
<path d="M31.3641 16.5632C31.3713 16.6682 31.3842 16.7731 31.3847 16.8786C31.3861 18.0101 31.3861 19.1417 31.3847 20.2733C31.3847 20.3782 31.3713 20.4832 31.3641 20.5886C30.3699 20.5886 29.3757 20.5886 28.3815 20.5886C28.3744 20.4836 28.3609 20.3787 28.3605 20.2733C28.359 19.1417 28.359 18.0101 28.3605 16.8786C28.3605 16.7736 28.3739 16.6687 28.3811 16.5632C29.3757 16.5632 30.3699 16.5632 31.3641 16.5632Z" fill="#ADB146"/>
<path d="M2.96889 14.3664C1.98717 14.3664 1.00498 14.3664 0.0232581 14.3664C0.0170265 14.26 0.00600131 14.1541 0.00600131 14.0477C0.00456324 13.2401 0.0050426 12.4329 0.0050426 11.6252C0.0050426 11.5336 0.00360453 11.442 0.00935679 11.3509C0.0462671 10.7565 0.501175 10.2222 1.08599 10.0691C1.492 9.96271 1.87788 10.0066 2.23931 10.2112C2.69854 10.4712 2.94636 10.8705 2.98519 11.3962C2.98759 11.4268 2.98759 11.4573 2.98759 11.4874C2.98711 12.4014 2.98663 13.3154 2.98471 14.2295C2.98423 14.2757 2.97416 14.3211 2.96889 14.3664Z" fill="#C6AF3A"/>
<path d="M69.7369 59.244C69.735 59.0298 69.7594 58.8199 69.8055 58.6095C69.9234 58.0733 70.0868 57.5505 70.2589 57.03C70.2776 56.9728 70.2906 56.9131 70.2968 56.8535C70.2997 56.8273 70.2863 56.7901 70.2666 56.7729C70.2215 56.7333 70.1669 56.7051 70.1194 56.6679C70.0682 56.6283 70.0427 56.5749 70.0576 56.5086C70.084 56.3898 70.1031 56.2686 70.1396 56.1527C70.2541 55.7882 70.3097 55.4119 70.386 55.0393C70.4162 54.8904 70.4492 54.7416 70.4885 54.5947C70.5048 54.5336 70.5585 54.4973 70.6199 54.4797C70.6491 54.4711 70.6793 54.4635 70.7095 54.462C71.0796 54.4434 71.4477 54.473 71.7977 54.5904C72.5157 54.8308 72.9294 55.3393 73.0579 56.0788C73.124 56.4585 73.1082 56.8401 73.0334 57.2146C72.8959 57.9054 72.6591 58.5633 72.3173 59.1815C72.1764 59.4363 72.0105 59.6729 71.8039 59.8799C71.5839 60.1003 71.3284 60.2592 71.0264 60.3455C70.4718 60.5044 70.0078 60.2363 69.7983 59.7392C69.7748 59.6839 69.7594 59.6233 69.7532 59.5636C69.7427 59.4573 69.7417 59.3504 69.7369 59.244ZM72.1644 58.0958C72.1577 58.0137 72.1543 57.9531 72.1471 57.893C72.0872 57.3873 71.8092 57.0605 71.3226 56.9084C71.2498 56.8855 71.175 56.8692 71.1007 56.8526C70.9947 56.8287 70.9142 56.863 70.8706 56.9508C70.6309 57.4317 70.4708 57.9359 70.432 58.4731C70.4234 58.5928 70.4291 58.7174 70.4545 58.8342C70.5398 59.2321 70.8869 59.3943 71.2608 59.2206C71.2747 59.2144 71.2891 59.2092 71.3025 59.202C71.5613 59.0646 71.7842 58.8819 71.9851 58.6716C72.0603 58.5928 72.1083 58.497 72.1275 58.3906C72.1457 58.2866 72.1543 58.1807 72.1644 58.0958Z" fill="#08A956"/>
<path d="M19.2208 5.57959C20.2087 5.58054 21.1967 5.5815 22.1851 5.58245C22.1918 5.6874 22.2043 5.79235 22.2043 5.89778C22.2052 6.96876 22.2052 8.03927 22.2033 9.11025C22.2033 9.2152 22.1913 9.32063 22.1851 9.42558C21.1972 9.42462 20.2087 9.42367 19.2208 9.42272C19.2088 9.31872 19.1863 9.21424 19.1858 9.11025C19.1829 8.03784 19.1834 6.96495 19.1834 5.89254C19.1839 5.78663 19.1757 5.67977 19.2208 5.57959Z" fill="#D5AD32"/>
<path d="M17.3812 4.11927C16.3914 4.11927 15.401 4.11927 14.4112 4.11927C14.4035 4.02863 14.3891 3.93752 14.3886 3.84688C14.3867 3.09981 14.3891 2.35323 14.3853 1.60616C14.3843 1.42107 14.4107 1.2417 14.4605 1.06471C14.6336 0.447406 15.204 0.00851808 15.8531 -6.88562e-05C16.4777 -0.00817874 16.9412 0.265172 17.2384 0.810442C17.3415 0.999832 17.3937 1.20687 17.4019 1.42345C17.4047 1.49978 17.4028 1.57563 17.4028 1.65196C17.4023 2.33796 17.4033 3.02349 17.4009 3.70949C17.4009 3.84592 17.3879 3.98284 17.3812 4.11927Z" fill="#E1AB2B"/>
<path d="M4.81888 11.4392C4.81265 11.3342 4.80114 11.2288 4.80066 11.1238C4.79923 10.0834 4.79875 9.04341 4.80018 8.00296C4.80018 7.89801 4.81265 7.79306 4.81936 7.68811C5.80204 7.6862 6.78519 7.68477 7.76787 7.68286C7.78225 7.75633 7.80909 7.82932 7.80957 7.90278C7.81197 9.01002 7.81197 10.1177 7.80909 11.225C7.80909 11.2984 7.78273 11.3719 7.76883 11.4454C6.78519 11.4435 5.80203 11.4416 4.81888 11.4392Z" fill="#C6AF3A"/>
<path d="M14.4102 21.2278C15.4006 21.2278 16.3914 21.2278 17.3817 21.2283C17.3889 21.3342 17.4019 21.4397 17.4019 21.5456C17.4033 22.6084 17.4033 23.6718 17.4023 24.7346C17.4023 24.8253 17.3951 24.9164 17.3894 25.007C17.386 25.0538 17.3084 25.1144 17.2576 25.1129C16.4585 25.0929 15.6805 24.9579 14.9284 24.685C14.7851 24.633 14.6456 24.5715 14.5075 24.5066C14.4347 24.4723 14.3982 24.404 14.391 24.3234C14.3882 24.2934 14.3867 24.2628 14.3867 24.2323C14.3867 23.2906 14.3867 22.3494 14.3882 21.4077C14.3882 21.3481 14.4025 21.288 14.4102 21.2278Z" fill="#A0B24B"/>
<path d="M17.3822 16.9291C16.3913 16.9291 15.401 16.9291 14.4102 16.9296C14.402 16.8246 14.3872 16.7197 14.3867 16.6152C14.3848 15.6048 14.3848 14.5939 14.3867 13.5835C14.3867 13.4786 14.4025 13.3736 14.4107 13.2692C15.401 13.2692 16.3913 13.2692 17.3817 13.2692C17.3889 13.3741 17.4023 13.4791 17.4023 13.584C17.4037 14.5944 17.4037 15.6043 17.4023 16.6147C17.4028 16.7192 17.3894 16.8242 17.3822 16.9291Z" fill="#BBB143"/>
<path d="M31.3643 16.5632C30.3701 16.5632 29.3754 16.5632 28.3813 16.5632C28.3741 16.4582 28.3606 16.3533 28.3606 16.2483C28.3592 15.2685 28.3587 14.2886 28.3606 13.3088C28.3606 13.2038 28.3745 13.0988 28.3817 12.9939C29.3759 12.9939 30.3701 12.9939 31.3647 12.9939C31.3719 13.0988 31.3858 13.2038 31.3858 13.3088C31.3873 14.2886 31.3873 15.2685 31.3858 16.2483C31.3849 16.3533 31.3715 16.4582 31.3643 16.5632Z" fill="#BBB143"/>
<path d="M24.025 13.1776C25.011 13.1776 25.997 13.1776 26.9835 13.1776C26.9898 13.2677 27.0018 13.3574 27.0018 13.4476C27.0027 14.457 27.0027 15.4664 27.0013 16.4759C27.0013 16.5661 26.9898 16.6557 26.9835 16.7459C26.7338 16.8256 26.4773 16.8437 26.2161 16.8394C25.7415 16.8322 25.267 16.8322 24.7929 16.8394C24.5312 16.8432 24.2752 16.8251 24.0254 16.7459C24.0192 16.641 24.0082 16.536 24.0077 16.431C24.0063 15.4517 24.0058 14.4727 24.0072 13.4934C24.0067 13.3875 24.0182 13.2825 24.025 13.1776Z" fill="#BBB143"/>
<path d="M9.58681 30.704C9.59304 30.2026 9.59879 29.7012 9.60551 29.1993C9.60599 29.1621 9.67022 29.1225 9.70425 29.1364C9.73253 29.1478 9.76225 29.1559 9.7891 29.1698C9.84327 29.1974 9.89647 29.228 9.94968 29.258C10.6697 29.6664 11.428 29.9836 12.2233 30.215C12.3115 30.2407 12.3992 30.2675 12.4855 30.2975C12.567 30.3257 12.6005 30.3905 12.6063 30.4721C12.6072 30.4874 12.6087 30.5026 12.6087 30.5174C12.6091 31.0651 12.6259 31.6132 12.6058 32.1599C12.5813 32.8149 12.2583 33.2972 11.6365 33.5238C10.5944 33.904 9.64481 33.1885 9.59784 32.2095C9.57387 31.7086 9.59352 31.2058 9.59352 30.704C9.59065 30.704 9.58873 30.704 9.58681 30.704Z" fill="#82B355"/>
<path d="M89.4212 55.8675C89.4058 56.034 89.3948 56.201 89.3737 56.367C89.2773 57.1298 89.0583 57.8549 88.7021 58.538C88.5823 58.768 88.4586 58.9955 88.3402 59.226C88.1926 59.5141 87.9558 59.694 87.6528 59.7946C87.5804 59.8185 87.5056 59.8356 87.4318 59.8557C86.8705 60.0078 86.3097 60.1596 85.7483 60.3122C85.6894 60.3284 85.6318 60.3504 85.5729 60.3661C85.4291 60.4043 85.3198 60.3723 85.2934 60.2879C85.2666 60.2011 85.3136 60.1147 85.4401 60.0312C85.5293 59.9725 85.6213 59.9167 85.7138 59.8638C86.0455 59.6734 86.3758 59.4812 86.7104 59.2966C87.208 59.0223 87.6686 58.696 88.1087 58.3396C88.1681 58.2914 88.2237 58.2389 88.2836 58.1917C88.5856 57.956 88.5808 57.5019 88.3541 57.2519C88.3114 57.2052 88.2616 57.1703 88.1969 57.1708C88.1053 57.1708 88.0133 57.1765 87.9217 57.1804C87.7348 57.1885 87.5555 57.1474 87.381 57.0902C87.2027 57.0315 87.0546 56.9261 86.9338 56.7815C86.8326 56.6608 86.7732 56.523 86.7612 56.3665C86.7492 56.2139 86.7531 56.0617 86.8067 55.9152C86.8489 55.8007 86.8834 55.6829 86.9376 55.5746C87.1222 55.2058 87.277 54.8251 87.405 54.434C87.4735 54.2245 87.5943 54.0533 87.765 53.9154C87.8623 53.8367 87.9725 53.7923 88.1001 53.7823C88.4351 53.7551 88.6968 53.8815 88.8977 54.1434C89.1057 54.4149 89.2356 54.7245 89.3114 55.0527C89.3737 55.3179 89.4245 55.5894 89.4212 55.8675Z" fill="#08A956"/>
<path d="M7.76813 7.6829C6.78545 7.68481 5.80229 7.68624 4.81962 7.68815C4.81338 7.62756 4.80188 7.56698 4.80188 7.50639C4.80044 6.75933 4.79469 6.01179 4.80188 5.26473C4.80763 4.64122 5.10243 4.1904 5.66951 3.92469C6.47962 3.54495 7.42395 3.97621 7.70965 4.76478C7.77867 4.95512 7.78634 5.15214 7.78634 5.35107C7.78586 6.02181 7.78634 6.69302 7.78442 7.36375C7.78394 7.47014 7.77388 7.57652 7.76813 7.6829Z" fill="#D5AD32"/>
<path d="M4.81947 31.4773C4.81276 31.4167 4.8003 31.3566 4.8003 31.296C4.79886 30.6868 4.8027 30.0781 4.79934 29.4689C4.79694 29.0285 4.97095 28.6689 5.29691 28.3831C5.72162 28.0115 6.212 27.908 6.75079 28.0802C7.28767 28.2519 7.63041 28.6135 7.75887 29.164C7.7862 29.2819 7.80681 29.4045 7.80777 29.5247C7.81256 30.1186 7.8116 30.7125 7.80825 31.306C7.80777 31.3642 7.78188 31.4229 7.7675 31.4811C6.78483 31.4801 5.80215 31.4787 4.81947 31.4773Z" fill="#82B355"/>
<path d="M28.382 20.5881C29.3761 20.5881 30.3703 20.5881 31.3645 20.5881C31.3712 20.6482 31.3842 20.7083 31.3842 20.7689C31.3861 21.3156 31.387 21.8628 31.3851 22.4095C31.3837 22.8588 31.2173 23.2376 30.8794 23.5386C30.633 23.7581 30.3478 23.8888 30.0127 23.9036C29.7189 23.9169 29.4341 23.894 29.17 23.7471C28.695 23.4828 28.4294 23.0826 28.37 22.5459C28.3633 22.4858 28.3618 22.4247 28.3618 22.3637C28.3618 21.817 28.3623 21.2698 28.3637 20.7231C28.3642 20.6782 28.3757 20.6329 28.382 20.5881Z" fill="#A0B24B"/>
<path d="M93.5325 55.7692C93.523 56.2735 93.3873 56.8335 93.1404 57.3635C92.9027 57.874 92.6486 58.3768 92.3955 58.8801C92.3346 59.0017 92.2565 59.1157 92.175 59.2255C92.0437 59.4024 91.8701 59.5126 91.6496 59.5661C90.8477 59.7607 90.0481 59.9658 89.2481 60.1667C89.2337 60.1705 89.2159 60.1777 89.204 60.1729C89.1637 60.1576 89.1215 60.1424 89.0875 60.1175C89.0573 60.0956 89.0659 60.0178 89.0923 59.9926C89.1249 59.9611 89.1546 59.9253 89.191 59.8986C89.5371 59.6477 89.8856 59.3991 90.2629 59.1954C90.5586 59.0356 90.8553 58.8782 91.1521 58.7203C91.5164 58.5266 91.8768 58.3277 92.2162 58.091C92.465 57.9174 92.5695 57.6841 92.5647 57.3893C92.5585 56.99 92.4123 56.648 92.1496 56.3527C92.0068 56.1919 91.8375 56.0607 91.6563 55.9462C91.5533 55.8809 91.4449 55.8236 91.3395 55.7621C91.1741 55.6648 91.1487 55.6023 91.2398 55.4296C91.3261 55.2659 91.3764 55.0913 91.4339 54.9186C91.5681 54.5146 91.6995 54.1091 91.8332 53.705C91.8577 53.6311 91.9344 53.5967 92.0173 53.6058C92.2205 53.6287 92.4003 53.7127 92.5657 53.8243C92.9707 54.0972 93.256 54.4702 93.4266 54.9225C93.5172 55.1648 93.5321 55.4267 93.5325 55.7692Z" fill="#08A956"/>
<path d="M17.382 13.2687C16.3917 13.2687 15.4013 13.2687 14.411 13.2687C14.4033 13.178 14.3884 13.0874 14.3884 12.9968C14.3875 12.3728 14.3894 11.7488 14.3904 11.1248C14.3904 11.0408 14.4325 10.9822 14.4987 10.9364C14.5112 10.9278 14.5241 10.9192 14.5375 10.9125C14.8347 10.756 15.129 10.5929 15.431 10.4455C15.6362 10.3453 15.8495 10.259 16.0643 10.1802C16.4084 10.0538 16.7555 9.93647 17.1035 9.82102C17.1735 9.79764 17.2526 9.80051 17.3274 9.79144L17.3609 9.79192C17.3748 9.86491 17.4007 9.93837 17.4012 10.0114C17.4031 11.0523 17.4017 12.0932 17.4002 13.1341C17.3993 13.179 17.3882 13.2238 17.382 13.2687Z" fill="#C6AF3A"/>
<path d="M19.2206 9.42273C20.2086 9.42368 21.197 9.42464 22.185 9.42559C22.1917 9.51623 22.2036 9.60687 22.2041 9.69751C22.2056 10.6096 22.2046 11.5213 22.2041 12.4334C22.2041 12.5093 22.2017 12.5851 22.1974 12.661C22.1941 12.7244 22.1682 12.7769 22.1087 12.8084C22.0819 12.8227 22.056 12.8389 22.0277 12.8513C21.6131 13.034 21.6874 13.056 21.3863 12.7168C20.8303 12.0899 20.2747 11.4631 19.7201 10.8348C19.6803 10.79 19.6525 10.7351 19.619 10.6845C19.5921 10.6697 19.5653 10.655 19.5384 10.6402C19.4857 10.9293 19.5293 11.216 19.5571 11.5036C19.5701 11.6401 19.5907 11.7751 19.6036 11.9115C19.6573 12.4868 19.7086 13.0626 19.7618 13.638C19.7719 13.7448 19.7388 13.8173 19.6449 13.8617C19.5485 13.907 19.4488 13.9461 19.3496 13.9857C19.2988 14.0058 19.2264 13.9519 19.2192 13.8917C19.2158 13.8617 19.2101 13.8316 19.2091 13.8011C19.1995 13.5273 19.1837 13.2539 19.1828 12.9801C19.1794 11.9449 19.1804 10.9097 19.1823 9.8745C19.1837 9.72327 19.1626 9.56918 19.2206 9.42273Z" fill="#C6AF3A"/>
<path d="M17.3821 32.3922C17.3888 32.4819 17.4013 32.5716 17.4013 32.6613C17.4032 33.4579 17.4037 34.2546 17.4027 35.0508C17.4027 35.1405 17.3888 35.2297 17.3816 35.3194C16.3917 35.3194 15.4019 35.3194 14.4115 35.3194C14.4034 35.2302 14.388 35.1405 14.388 35.0513C14.3866 34.2546 14.3871 33.4584 14.389 32.6617C14.389 32.5721 14.4029 32.4829 14.4106 32.3932C15.4009 32.3927 16.3917 32.3927 17.3821 32.3922Z" fill="#6DB458"/>
<path d="M14.4112 35.3195C15.4011 35.3195 16.391 35.3195 17.3813 35.3195C17.388 35.5017 17.3995 35.6844 17.401 35.8666C17.4043 36.2631 17.4067 36.6595 17.401 37.0559C17.3947 37.5077 17.2174 37.8874 16.8708 38.1784C16.0731 38.8487 14.8105 38.5315 14.4711 37.5029C14.4237 37.3589 14.3858 37.2105 14.3872 37.055C14.3906 36.5059 14.3911 35.9573 14.394 35.4082C14.394 35.3791 14.405 35.3495 14.4112 35.3195Z" fill="#5CB45B"/>
<path d="M22.1861 19.8568C21.1972 19.8577 20.2078 19.8582 19.2189 19.8591C19.2069 19.7847 19.1848 19.7103 19.1848 19.6354C19.1825 18.3884 19.1829 17.1409 19.1839 15.8939C19.1839 15.8495 19.1959 15.8047 19.2031 15.7603C19.2079 15.7284 19.2745 15.6845 19.3095 15.6921C19.4586 15.7245 19.6086 15.7536 19.7562 15.7918C19.9394 15.8395 19.9624 15.8767 19.982 16.0799C20.0328 16.6095 20.0875 17.1385 20.1373 17.668C20.1531 17.8345 20.1555 18.0025 20.1723 18.1685C20.1953 18.3951 20.227 18.6207 20.2548 18.8468C20.2596 18.885 20.2792 18.907 20.3113 18.8998C20.3387 18.8941 20.3722 18.8845 20.3875 18.8645C20.434 18.8044 20.4748 18.74 20.5136 18.6751C20.7955 18.2052 21.0759 17.7344 21.3573 17.264C21.5212 16.9897 21.6856 16.7154 21.852 16.442C21.8755 16.4034 21.9033 16.3604 21.9402 16.339C21.9761 16.318 22.0298 16.3094 22.0696 16.3194C22.1089 16.329 22.1568 16.3614 22.1727 16.3967C22.1961 16.4497 22.2029 16.5136 22.2029 16.5727C22.2038 17.6223 22.2033 18.6718 22.2019 19.7213C22.2024 19.7661 22.1918 19.8114 22.1861 19.8568Z" fill="#ADB146"/>
<path d="M36.0732 62.9693C36.0665 62.997 36.0694 63.0332 36.0521 63.0509C35.7794 63.339 35.5042 63.6248 35.2291 63.9105C35.1021 64.0422 34.976 64.1753 34.8442 64.3022C34.7996 64.3451 34.7353 64.3628 34.6745 64.3332C34.5647 64.2802 34.4525 64.2292 34.3504 64.1634C34.1323 64.0226 33.9195 63.8743 33.7067 63.7254C33.6194 63.6644 33.5389 63.5928 33.4545 63.5279C33.2618 63.3801 33.2292 63.3805 33.0787 63.547C32.8946 63.7507 32.7134 63.9573 32.5308 64.1624C32.48 64.2192 32.4316 64.2788 32.375 64.3299C32.329 64.3718 32.272 64.389 32.2058 64.3723C31.5879 64.2158 31.0812 63.9034 30.7433 63.3509C30.7002 63.2803 30.6858 63.205 30.7385 63.1387C31.0808 62.7093 31.4192 62.2766 31.8089 61.8878C31.8703 61.8268 31.9484 61.8211 32.0145 61.8711C32.3429 62.1202 32.6703 62.3711 33.0001 62.6182C33.0979 62.6912 33.2019 62.7561 33.304 62.8229C33.3567 62.8572 33.4181 62.8486 33.4699 62.7985C33.5686 62.7031 33.6664 62.6063 33.7632 62.5094C33.9789 62.2933 34.1922 62.0753 34.4089 61.8602C34.5033 61.7662 34.5546 61.7609 34.6452 61.8306C35.1054 62.1841 35.5651 62.5385 36.0234 62.8939C36.0464 62.9116 36.0569 62.944 36.0732 62.9693Z" fill="#08A956"/>
<path d="M4.8196 31.4772C5.80228 31.4787 6.78495 31.4801 7.76811 31.4815C7.77434 32.0144 7.78057 32.5473 7.7868 33.0801C7.78728 33.1412 7.78776 33.2023 7.78345 33.2628C7.74222 33.8491 7.4455 34.2661 6.91486 34.508C6.2428 34.8142 5.46241 34.5833 5.07366 34.0209C4.996 33.9088 4.90588 33.8005 4.90205 33.654C4.89869 33.6383 4.89342 33.623 4.88671 33.6082C4.82391 33.5162 4.80474 33.4112 4.8057 33.3034C4.80857 32.6947 4.81433 32.086 4.8196 31.4772Z" fill="#6DB458"/>
<path d="M24.0243 16.7454C24.274 16.8246 24.5305 16.8432 24.7918 16.8389C25.2663 16.8318 25.7409 16.8318 26.215 16.8389C26.4767 16.8427 26.7327 16.8246 26.9824 16.7454C26.9886 16.8356 26.9997 16.9253 26.9997 17.0154C27.0011 17.9643 27.0011 18.9127 26.9997 19.8615C26.9997 19.9512 26.9882 20.0414 26.9819 20.1311C26.7768 20.1311 26.5721 20.1306 26.3669 20.1306C26.3559 19.8882 26.3343 19.6454 26.3353 19.4031C26.3372 18.9451 26.2485 18.4957 26.2154 18.0411C26.2087 17.9514 26.1776 17.8627 26.1522 17.7754C26.1469 17.7577 26.1181 17.7439 26.097 17.7348C26.0908 17.732 26.0688 17.7496 26.0644 17.762C25.9086 18.1747 25.7423 18.5825 25.5391 18.9756C25.1819 19.6683 24.7505 20.3119 24.275 20.9282C24.2381 20.9764 24.1959 21.0212 24.1509 21.0618C24.1317 21.079 24.0996 21.0866 24.0727 21.0895C24.0349 21.0937 24.0181 21.0704 24.0171 21.0317C24.0142 20.9406 24.0061 20.85 24.0061 20.7593C24.0051 19.5276 24.0051 18.2958 24.0061 17.0641C24.007 16.9572 24.0186 16.8513 24.0243 16.7454Z" fill="#ADB146"/>
<path d="M31.3641 12.9939C30.37 12.9939 29.3753 12.9939 28.3811 12.9939C28.3394 12.4768 28.35 11.9587 28.3711 11.4421C28.3874 11.0494 28.5455 10.7103 28.8375 10.4298C29.6519 9.64787 31.0502 10.0252 31.3224 11.1286C31.3478 11.2317 31.3804 11.3371 31.3804 11.4416C31.38 11.9592 31.4073 12.4773 31.3641 12.9939Z" fill="#C6AF3A"/>
<path d="M0.0218699 32.4819C0.0151589 32.2386 0.00557181 31.9953 0.00269568 31.752C-0.000180443 31.4777 0.00653052 31.2034 0.00221633 30.9291C-0.00785011 30.2679 0.531903 29.6825 1.17568 29.5337C1.81226 29.3863 2.6612 29.7484 2.90758 30.4821C2.94593 30.5961 2.97757 30.7187 2.97901 30.838C2.98716 31.3861 3.00969 31.9347 2.96894 32.4824C1.98674 32.4819 1.00455 32.4819 0.0218699 32.4819Z" fill="#82B355"/>
<path d="M0.0222335 32.4819C1.00491 32.4819 1.98711 32.4819 2.96978 32.4819C2.97506 32.9981 2.98992 33.5147 2.98321 34.0309C2.9717 34.8576 2.09832 35.61 1.13338 35.3643C0.642039 35.2393 0.298821 34.9387 0.100368 34.4741C0.0457219 34.3463 0.00929094 34.2146 0.0097703 34.0767C0.0112084 33.5448 0.01744 33.0134 0.0222335 32.4819Z" fill="#6DB458"/>
<path d="M12.5828 16.1982C12.5914 16.3027 12.6072 16.4072 12.6077 16.5117C12.6101 17.3083 12.6101 18.1055 12.6082 18.9022C12.6077 19.0066 12.5919 19.1111 12.5832 19.2156C11.7947 19.2175 11.0062 19.2199 10.2176 19.2218C10.2023 19.196 10.1783 19.1717 10.1735 19.144C10.1136 18.8182 10.0494 18.4924 10.0508 18.1589C10.0522 17.8422 10.0513 17.5259 10.0537 17.2091C10.0566 16.8909 10.1208 16.5803 10.1788 16.2698C10.1841 16.2421 10.2085 16.2183 10.2239 16.1925C11.01 16.1949 11.7966 16.1963 12.5828 16.1982Z" fill="#ADB146"/>
<path d="M26.9824 23.8822C26.9886 23.9723 26.9996 24.062 27.0001 24.1522C27.0015 25.1316 27.002 26.1105 27.0011 27.0898C27.0011 27.1795 26.9891 27.2697 26.9828 27.3594C26.922 27.3546 26.8544 27.3661 26.8016 27.3432C26.6123 27.2611 26.4143 27.2673 26.2159 27.2678C25.7418 27.2683 25.2677 27.2683 24.7936 27.2678C24.5952 27.2673 24.3972 27.2611 24.2078 27.3432C24.1551 27.3661 24.0875 27.3551 24.0267 27.3594C24.0209 27.3141 24.0094 27.2687 24.0099 27.2239C24.0118 27.0264 23.9859 26.8217 24.029 26.6328C24.0731 26.4406 24.2534 26.3127 24.3751 26.1582C24.7548 25.6759 25.0496 25.1435 25.3118 24.592C25.423 24.3583 25.5266 24.1212 25.6335 23.8855C25.7245 23.8769 25.8209 23.8845 25.9052 23.8564C26.1909 23.7605 26.4714 23.7596 26.7571 23.8569C26.8261 23.8802 26.9066 23.8745 26.9824 23.8822Z" fill="#91B24E"/>
<path d="M72.9863 60.2974C72.935 60.2859 72.9053 60.2792 72.876 60.2721C72.8128 60.2573 72.7643 60.1433 72.7993 60.0836C72.8219 60.045 72.8444 60.0021 72.8784 59.9749C72.9494 59.9176 73.0256 59.8666 73.1033 59.8184C73.5443 59.5436 73.9901 59.277 74.4258 58.995C74.7843 58.7627 75.1319 58.5127 75.4832 58.2694C75.7641 58.0753 75.9822 57.8219 76.1663 57.5381C76.4745 57.063 76.7209 56.5573 76.9146 56.0263C77.0967 55.5259 77.2765 55.024 77.4587 54.5236C77.4951 54.4239 77.5329 54.3237 77.5809 54.2288C77.6173 54.1563 77.6926 54.1296 77.7712 54.1186C77.8651 54.1057 77.9677 54.1758 77.974 54.2617C77.9792 54.3371 77.9869 54.4144 77.9749 54.4883C77.9308 54.7583 77.8929 55.0307 77.8273 55.2964C77.6307 56.0945 77.4054 56.8845 77.1102 57.6535C76.9242 58.1373 76.7161 58.611 76.465 59.0647C76.4209 59.1448 76.3758 59.224 76.3298 59.3032C76.1246 59.6562 75.8044 59.8475 75.4142 59.931C75.2498 59.9658 75.0825 59.9916 74.9147 60.004C74.3639 60.0455 73.8237 60.1533 73.2821 60.2506C73.1766 60.2683 73.0711 60.2835 72.9863 60.2974Z" fill="#08A956"/>
<path d="M85.7425 54.4102C85.7113 54.6015 85.6893 54.8147 85.6404 55.0217C85.371 56.1643 85.0513 57.2915 84.5609 58.3635C84.4343 58.6402 84.2872 58.9078 84.1491 59.1792C83.9166 59.6377 83.5399 59.8891 83.0308 59.9506C82.7115 59.9892 82.3918 60.0226 82.0745 60.0718C81.6968 60.13 81.3209 60.202 80.9442 60.2693C80.8382 60.2884 80.7333 60.3051 80.6259 60.2764C80.565 60.2602 80.5104 60.1429 80.5429 60.088C80.566 60.0489 80.587 60.0045 80.6206 59.9773C80.6915 59.9201 80.7682 59.8695 80.8459 59.8213C81.2869 59.5465 81.7293 59.2742 82.1708 58.9998C82.5476 58.7656 82.9124 58.5147 83.2657 58.2461C83.5121 58.0591 83.7172 57.8368 83.8874 57.5801C84.2009 57.1079 84.4506 56.6036 84.6457 56.0727C84.8346 55.5579 85.0177 55.0413 85.2042 54.5261C85.2353 54.4402 85.2684 54.3548 85.3039 54.2709C85.3466 54.1707 85.4434 54.1153 85.5623 54.1187C85.6332 54.1206 85.7185 54.1917 85.7257 54.2546C85.7305 54.2995 85.7353 54.3448 85.7425 54.4102Z" fill="#08A956"/>
<path d="M26.9845 33.5787C26.9898 33.6231 27.0004 33.6679 27.0004 33.7123C27.0018 34.4774 27.0023 35.2426 27.0018 36.0078C27.0018 36.0522 26.9898 36.0966 26.9836 36.1409C26.892 36.1366 26.7914 36.1548 26.7108 36.1228C26.5037 36.0412 26.2914 36.0503 26.0776 36.0498C25.6644 36.0493 25.2512 36.0493 24.8385 36.0498C24.6707 36.0498 24.5058 36.0503 24.3419 36.1128C24.2465 36.149 24.1309 36.1333 24.0245 36.1409C24.0178 36.0665 24.0049 35.9921 24.0049 35.9177C24.0039 35.2126 24.0044 34.507 24.0063 33.8019C24.0063 33.7275 24.0173 33.6526 24.0236 33.5782C24.2743 33.5014 24.5302 33.4814 24.792 33.4852C25.2665 33.4928 25.7416 33.4928 26.2166 33.4852C26.4779 33.4818 26.7338 33.5024 26.9845 33.5787Z" fill="#6DB458"/>
<path d="M31.3837 33.2824C31.3804 33.9775 30.8344 34.7694 29.8344 34.7431C28.8719 34.7178 28.3542 33.9641 28.3705 33.2466C28.3916 32.2968 29.1691 31.7596 29.9169 31.7792C30.739 31.8007 31.3923 32.4681 31.3837 33.2824Z" fill="#6DB458"/>
<path d="M17.4058 41.1905C17.4379 41.8216 16.9115 42.6932 15.8766 42.6808C14.9682 42.6698 14.381 41.9409 14.3873 41.1929C14.3954 40.2722 15.148 39.6945 15.9212 39.7083C16.8109 39.7241 17.4307 40.4463 17.4058 41.1905Z" fill="#5CB45B"/>
<path d="M11.1091 37.615C10.334 37.6475 9.80432 37.0683 9.65476 36.5727C9.47788 35.9854 9.68161 35.1921 10.4026 34.83C11.2587 34.4002 12.458 34.8028 12.5946 36.0102C12.7011 36.9481 11.9336 37.584 11.2472 37.615C11.2007 37.6165 11.1547 37.615 11.1091 37.615Z" fill="#5CB45B"/>
<path d="M1.47698 39.5509C0.69228 39.6067 -0.0435296 38.8916 0.00200908 38.0921C-0.0382567 37.2362 0.727752 36.5898 1.51246 36.6022C2.359 36.6156 2.9927 37.3178 2.99798 38.0811C3.00325 38.8811 2.31394 39.6153 1.47698 39.5509Z" fill="#5CB45B"/>
<path d="M23.1567 15.8763C22.7598 15.7875 22.3562 15.6974 21.953 15.6072C21.8931 15.5938 21.8342 15.5776 21.7738 15.5667C21.6927 15.5519 21.6194 15.57 21.5729 15.6416C21.5063 15.7436 21.4449 15.8491 21.3816 15.9535C21.2 16.2536 21.0188 16.5537 20.8352 16.8528C20.8213 16.8757 20.7901 16.9048 20.7685 16.9034C20.712 16.8995 20.7149 16.8447 20.7105 16.8051C20.6803 16.5169 20.653 16.2288 20.6243 15.9411C20.6094 15.7894 20.5897 15.6382 20.5797 15.4865C20.5696 15.3396 20.4896 15.2771 20.3505 15.248C19.991 15.1721 19.6339 15.0877 19.2763 15.0037C19.1872 14.9827 19.1004 14.9536 19.0131 14.926C19.0002 14.9217 18.9796 14.904 18.981 14.8969C18.9863 14.8735 18.9949 14.8401 19.0122 14.8325C19.3621 14.6779 19.713 14.5267 20.0639 14.3745C20.1622 14.332 20.2614 14.2915 20.3573 14.2443C20.4162 14.2152 20.4469 14.157 20.444 14.0945C20.4344 13.9122 20.4181 13.73 20.4033 13.5478C20.3798 13.2592 20.3544 12.971 20.3323 12.6824C20.3304 12.6552 20.3467 12.6271 20.3539 12.5989C20.3616 12.5684 20.375 12.5612 20.3951 12.5789C20.4287 12.6085 20.4656 12.6357 20.4953 12.6686C20.7494 12.9538 21.0015 13.2401 21.2551 13.5258C21.3054 13.5826 21.3567 13.6394 21.4118 13.6923C21.4598 13.7386 21.523 13.7462 21.5825 13.7238C21.6971 13.6804 21.8087 13.6308 21.9214 13.5831C22.2454 13.4466 22.569 13.3088 22.894 13.1747C22.917 13.1652 22.9506 13.1757 22.9779 13.1824C22.9865 13.1843 22.999 13.2076 22.9961 13.2157C22.9745 13.2716 22.9544 13.3288 22.9242 13.3799C22.7075 13.7477 22.4894 14.115 22.2704 14.4814C22.2267 14.5548 22.2277 14.624 22.2838 14.6889C22.4937 14.9312 22.7047 15.1726 22.9151 15.415C23.0153 15.5304 23.1164 15.6444 23.2133 15.7622C23.2305 15.7832 23.2387 15.8204 23.2334 15.8467C23.2305 15.8591 23.1883 15.8643 23.1567 15.8763Z" fill="#08A956"/>
<path d="M24.0256 27.3589C24.0865 27.3541 24.1541 27.3656 24.2068 27.3427C24.3962 27.2606 24.5941 27.2668 24.7926 27.2673C25.2667 27.2678 25.7408 27.2678 26.2148 27.2673C26.4133 27.2668 26.6113 27.2606 26.8006 27.3427C26.8533 27.3656 26.9209 27.3546 26.9818 27.3589C26.9861 27.7534 26.9991 28.1479 26.9924 28.542C26.978 29.3554 26.2369 29.9541 25.479 29.9393C24.9134 29.9283 24.2835 29.5657 24.086 28.9427C24.0496 28.8282 24.0189 28.7061 24.0175 28.5873C24.0127 28.1785 24.0218 27.7687 24.0256 27.3589Z" fill="#82B355"/>
<path d="M26.9845 33.5787C26.7338 33.5024 26.4779 33.4819 26.2161 33.4862C25.7416 33.4938 25.2665 33.4938 24.7915 33.4862C24.5298 33.4819 24.2738 33.5024 24.0231 33.5792C23.9833 33.125 23.9905 32.6694 24.0164 32.2162C24.0499 31.6247 24.4636 31.1271 25.0312 30.9397C25.8327 30.6744 26.6744 31.1372 26.9213 31.8613C26.9601 31.9744 26.9855 32.097 26.9903 32.2162C27.008 32.6699 27.0238 33.1246 26.9845 33.5787Z" fill="#82B355"/>
<path d="M4.81904 11.4392C5.8022 11.4411 6.78536 11.4435 7.76899 11.4454C7.79679 11.557 7.77618 11.6544 7.69469 11.7402C7.46364 11.984 7.22876 12.2244 7.00634 12.4758C6.11618 13.4824 5.45083 14.6221 4.9849 15.8791C4.95854 15.9502 4.9245 16.0189 4.89191 16.0871C4.88759 16.0967 4.86986 16.1019 4.85691 16.1053C4.82 16.1148 4.8061 16.0967 4.8061 16.0542C4.80562 15.9478 4.79987 15.841 4.79987 15.7346C4.79939 14.4394 4.79891 13.1442 4.79987 11.8485C4.79987 11.7126 4.81233 11.5761 4.81904 11.4392Z" fill="#BBB143"/>
<path d="M10.2173 19.2218C11.0058 19.2199 11.7944 19.2175 12.5829 19.2156C12.5915 19.321 12.6073 19.4264 12.6073 19.5323C12.6093 20.6715 12.6088 21.8103 12.6078 22.9495C12.6078 23.0244 12.6006 23.1002 12.5872 23.1741C12.5848 23.188 12.5273 23.2099 12.511 23.2009C12.4463 23.1636 12.3816 23.1221 12.3279 23.0711C11.5091 22.2921 10.9028 21.3733 10.5039 20.319C10.3908 20.0208 10.2858 19.7193 10.2312 19.4035C10.2206 19.3439 10.2216 19.2824 10.2173 19.2218Z" fill="#A0B24B"/>
<path d="M12.5825 16.1982C11.7959 16.1963 11.0098 16.1949 10.2231 16.193C10.239 16.0728 10.2409 15.9492 10.2725 15.8333C10.5534 14.8086 11.0146 13.8736 11.6986 13.0535C11.9421 12.7616 12.1794 12.4629 12.4929 12.2382C12.5101 12.2258 12.5485 12.2392 12.5753 12.2463C12.5854 12.2487 12.5931 12.2668 12.5979 12.2797C12.6031 12.2936 12.6051 12.3093 12.6065 12.3241C12.6079 12.3394 12.6084 12.3546 12.6084 12.3694C12.6084 13.5702 12.6089 14.7714 12.6075 15.9721C12.6075 16.048 12.5916 16.1229 12.5825 16.1982Z" fill="#BBB143"/>
<path d="M19.2186 36.4162C20.2075 36.4162 21.1969 36.4162 22.1858 36.4167C22.1897 36.7358 22.2088 37.0559 22.1945 37.3746C22.1676 37.9633 21.7621 38.4852 21.1955 38.6741C20.4103 38.9355 19.5916 38.541 19.3025 37.8159C19.2392 37.657 19.2124 37.491 19.2004 37.3259C19.1779 37.0225 19.1577 36.7177 19.2186 36.4162Z" fill="#5CB45B"/>
<path d="M24.0245 36.1413C24.1309 36.1337 24.2464 36.1495 24.3418 36.1132C24.5057 36.0507 24.6706 36.0507 24.8384 36.0502C25.2516 36.0497 25.6648 36.0497 26.0775 36.0502C26.2909 36.0507 26.5032 36.0416 26.7108 36.1232C26.7913 36.1552 26.892 36.1366 26.9835 36.1413C26.9874 36.4447 26.9969 36.7482 26.9936 37.0516C26.9878 37.6302 26.5123 38.3162 25.6859 38.4193C24.9602 38.5099 24.2867 38.0777 24.0604 37.3659C24.0288 37.2658 24.0139 37.157 24.013 37.0516C24.0111 36.7482 24.0197 36.4447 24.0245 36.1413Z" fill="#5CB45B"/>
<path d="M22.1851 31.203C21.1967 31.2044 20.2087 31.2054 19.2208 31.2068C19.2083 31.1176 19.1853 31.0284 19.1848 30.9392C19.1824 30.6668 19.1862 30.3939 19.1925 30.1215C19.1939 30.0581 19.2356 30.008 19.2917 29.9789C19.3454 29.9512 19.4029 29.9312 19.459 29.9087C20.3377 29.5529 21.165 29.1063 21.9267 28.5415C21.9751 28.5053 22.0283 28.4757 22.0801 28.4437C22.1218 28.418 22.1851 28.4385 22.1894 28.479C22.1947 28.5239 22.2038 28.5687 22.2038 28.6135C22.2047 29.4169 22.2052 30.2198 22.2043 31.0231C22.2043 31.0828 22.1918 31.1429 22.1851 31.203Z" fill="#82B355"/>
<path d="M17.3818 32.3923C16.3914 32.3923 15.4006 32.3928 14.4103 32.3928C14.4021 32.2874 14.3868 32.1824 14.3868 32.077C14.3863 31.6529 14.3892 31.2288 14.3935 30.8052C14.3944 30.7203 14.4558 30.6592 14.5349 30.6592C14.6868 30.6592 14.8393 30.664 14.9912 30.6649C15.2194 30.6668 15.4481 30.6649 15.6762 30.6688C16.1805 30.6769 16.6776 30.601 17.1757 30.5395C17.2059 30.5357 17.2356 30.5285 17.2658 30.5242C17.3267 30.5161 17.3904 30.5648 17.3942 30.622C17.3971 30.6673 17.4029 30.7126 17.4029 30.758C17.4033 31.2426 17.4043 31.7273 17.4024 32.212C17.4019 32.2726 17.389 32.3327 17.3818 32.3923Z" fill="#82B355"/>
<path d="M50.7352 54.9954C50.2708 54.8819 49.7813 54.62 49.4146 54.163C49.2157 53.9149 49.1999 53.9311 49.4285 53.6726C49.7003 53.3649 49.975 53.0595 50.2506 52.7547C50.3115 52.6874 50.3815 52.6283 50.4486 52.5668C50.4889 52.5295 50.5349 52.5419 50.5747 52.5648C50.614 52.5873 50.6494 52.6168 50.6844 52.6459C51.0833 52.9761 51.4974 53.2866 51.9274 53.5757C51.9528 53.5929 51.9782 53.6096 52.0027 53.6277C52.0822 53.6859 52.0981 53.7532 52.0405 53.8181C51.7074 54.1935 51.3733 54.568 51.0392 54.9425C50.985 55.0031 50.9184 55.0322 50.7352 54.9954Z" fill="#08A956"/>
<path d="M34.8768 65.6661C34.8758 65.6814 34.8768 65.6966 34.8734 65.7114C34.87 65.7257 34.8657 65.7419 34.8566 65.752C34.4985 66.1465 34.14 66.5405 33.781 66.9336C33.7244 66.9956 33.6515 67.0109 33.5724 66.9918C32.9675 66.8463 32.4819 66.531 32.1507 65.9976C32.097 65.9113 32.1023 65.8359 32.1804 65.7496C32.527 65.3651 32.875 64.982 33.2244 64.5999C33.2939 64.5236 33.3582 64.514 33.4229 64.566C33.874 64.9295 34.3418 65.2706 34.8211 65.5964C34.8446 65.6131 34.8585 65.6427 34.8768 65.6661Z" fill="#08A956"/>
<path d="M26.9827 23.8821C26.9069 23.8745 26.8264 23.8807 26.7564 23.8564C26.4712 23.7591 26.1908 23.76 25.9046 23.8559C25.8202 23.884 25.7239 23.8764 25.6328 23.885C25.7248 23.5983 25.8188 23.3121 25.9089 23.0244C26.1721 22.1843 26.3164 21.3247 26.3408 20.4445C26.3437 20.3395 26.3586 20.2346 26.3681 20.1296C26.5733 20.1296 26.778 20.1301 26.9832 20.1301C26.9894 20.2203 27.0004 20.31 27.0004 20.4001C27.0019 21.4706 27.0019 22.5407 27.0009 23.6112C27.0009 23.7023 26.9889 23.792 26.9827 23.8821Z" fill="#A0B24B"/>
<path d="M4.81194 24.1769C4.81194 23.8587 4.81194 23.54 4.81242 23.2218C4.81242 23.2071 4.81769 23.1918 4.82056 23.177C4.84357 23.1899 4.88096 23.197 4.88815 23.2161C5.06983 23.6989 5.26205 24.1769 5.49837 24.6368C5.74907 25.1239 6.02758 25.5928 6.35114 26.035C6.41346 26.1204 6.46811 26.2115 6.52419 26.3012C6.55631 26.3523 6.51125 26.4319 6.44797 26.4319C6.31136 26.4319 6.17139 26.4453 6.03813 26.4224C5.3258 26.3012 4.81817 25.7121 4.80187 24.9955C4.79564 24.7227 4.80091 24.4493 4.80091 24.1764C4.80475 24.1769 4.80858 24.1769 4.81194 24.1769Z" fill="#91B24E"/>
<path d="M13.4029 10.1998C13.4187 10.1134 13.5165 10.1091 13.5563 10.0471C13.562 10.0381 13.5606 10.019 13.5553 10.009C13.5505 9.9999 13.5337 9.99036 13.5242 9.99179C13.4657 10.0009 13.4053 10.0066 13.3492 10.0252C13.2049 10.0734 13.0582 10.0886 12.9072 10.0724C12.9475 10.0505 12.9849 10.018 13.0275 10.0085C13.3703 9.93025 13.714 9.85774 14.0677 9.82959C14.0625 9.8501 14.0634 9.87205 14.0538 9.87825C13.8496 10.0104 13.6378 10.1282 13.4029 10.1998Z" fill="#5CB45B"/>
<path d="M24.9623 22.221C24.9379 22.1547 24.9364 22.0741 24.8521 22.045C24.8808 21.8751 24.9786 21.7459 25.096 21.6137C25.0951 21.8766 25.073 21.9734 24.9623 22.221Z" fill="#5CB45B"/>
<path d="M12.9059 10.0729C12.811 10.1974 12.6758 10.1716 12.5464 10.1688C12.6533 10.0886 12.7726 10.0552 12.9059 10.0729Z" fill="#5CB45B"/>
<path d="M12.5393 10.1707C12.4703 10.2704 12.3696 10.2704 12.2646 10.257C12.3437 10.1888 12.4329 10.1516 12.5393 10.1707Z" fill="#5CB45B"/>
<path d="M12.2626 10.2575C12.1969 10.3577 12.0981 10.3625 11.9932 10.351C12.0699 10.2823 12.1561 10.2403 12.2626 10.2575Z" fill="#5CB45B"/>
<path d="M13.2153 10.3047C13.221 10.2556 13.2522 10.2462 13.2944 10.2546C13.284 10.2963 13.2608 10.3183 13.2153 10.3047Z" fill="#5CB45B"/>
<path d="M11.9879 10.3525C11.9419 10.4331 11.8695 10.4469 11.7852 10.4326C11.8388 10.3706 11.9036 10.3362 11.9879 10.3525Z" fill="#5CB45B"/>
<path d="M11.7224 10.4507C11.6759 10.5223 11.6079 10.5438 11.5264 10.5337C11.5786 10.4746 11.6395 10.4369 11.7224 10.4507Z" fill="#5CB45B"/>
<path d="M4.88596 33.6083C4.89311 33.6229 4.89787 33.6381 4.90121 33.6537L4.875 33.6352L4.88596 33.6083Z" fill="#82B355"/>
<path d="M17.36 9.79176L17.3267 9.79128C17.3386 9.78277 17.36 9.76575 17.361 9.76717C17.4019 9.81209 17.299 9.79176 17.36 9.79176Z" fill="#BBB143"/>
<path d="M19.54 10.6406C19.5665 10.6551 19.593 10.6696 19.6195 10.6841C19.593 10.6696 19.5665 10.6551 19.54 10.6406Z" fill="#BBB143"/>
<path d="M24.8536 22.0441C24.8569 22.097 24.832 22.1309 24.7831 22.1495C24.7793 22.0965 24.8047 22.0627 24.8536 22.0441Z" fill="#5CB45B"/>
</svg>
