<svg width="16" height="16" viewBox="0 0 16 16" fill="none" xmlns="http://www.w3.org/2000/svg">
<path fill-rule="evenodd" clip-rule="evenodd" d="M3 5.60703C3 5.26198 3.24773 5 3.57402 5C3.73112 5 3.87613 5.07029 3.98489 5.17891L7.99698 9.52396L12.0151 5.17891C12.1239 5.07029 12.2689 5 12.426 5C12.7462 5 13 5.26198 13 5.60703C13 5.77955 12.9396 5.92013 12.8308 6.03514L8.43202 10.7955C8.31722 10.9297 8.16012 11 7.99698 11C7.83384 11 7.68882 10.9297 7.56798 10.7955L3.16918 6.03514C3.06042 5.92013 3 5.77955 3 5.60703Z" fill="#354F52"/>
</svg>
