<svg width="22" height="25" viewBox="0 0 22 25" fill="none" xmlns="http://www.w3.org/2000/svg">
<path d="M11.2357 0.8125H10.4991C7.84734 0.8125 5.72591 2.96339 5.72591 5.58571V8.76786C5.69645 10.0054 6.16788 11.1839 6.99288 12.0679C7.90627 13.0402 9.17323 13.5705 10.4991 13.5705H11.2357C12.8563 13.5705 14.3589 12.775 15.2429 11.4196C15.5081 11.0366 15.7143 10.5946 15.8322 10.1232C15.95 9.68125 16.0089 9.23929 16.0089 8.79732V5.61518C16.0089 2.96339 13.8581 0.8125 11.2357 0.8125ZM13.6518 8.79732C13.6518 9.03304 13.6223 9.26875 13.5634 9.475C13.5045 9.71072 13.3866 9.91697 13.2688 10.1232C12.8268 10.8009 12.0607 11.2134 11.2357 11.2134H10.4991C9.82145 11.2134 9.2027 10.9482 8.73127 10.4473C8.28931 10.0054 8.05359 9.41607 8.05359 8.79732V5.61518C8.05359 4.28929 9.14377 3.19911 10.4697 3.19911H11.2063C12.5322 3.19911 13.6223 4.28929 13.6223 5.61518V8.79732H13.6518Z" fill="#354F52" stroke="white" stroke-width="0.5"/>
<path d="M0.6875 20.4358V22.8224C0.6875 23.4706 1.21786 24.0009 1.86607 24.0009C2.51429 24.0009 3.04464 23.4706 3.04464 22.8224V20.5241C3.1625 20.3179 3.89911 19.4045 7.55268 17.4304C8.40714 16.959 8.9375 16.075 8.9375 15.1027V15.0143C8.9375 14.3661 8.40714 13.8358 7.75893 13.8358C7.11071 13.8358 6.58036 14.3661 6.58036 15.0143V15.1322C6.58036 15.25 6.52143 15.3384 6.43304 15.3974C1.39464 18.1081 0.6875 19.434 0.6875 20.4358Z" fill="#354F52" stroke="white" stroke-width="0.5"/>
<path d="M20.1339 24.0304C20.7821 24.0304 21.3125 23.5 21.3125 22.8518V20.4652C21.3125 19.4339 20.6054 18.1375 15.567 15.3973C15.4786 15.3384 15.4196 15.25 15.4196 15.1321V14.7196C15.4196 14.0714 14.8893 13.5411 14.2411 13.5411C13.5929 13.5411 13.0625 14.0714 13.0625 14.7196V15.1321C13.0625 16.1045 13.5929 16.9884 14.4473 17.4598C18.1009 19.4339 18.8375 20.3473 18.9554 20.5536V22.8518C18.9554 23.5 19.4857 24.0304 20.1339 24.0304Z" fill="#354F52" stroke="white" stroke-width="0.5"/>
</svg>
