<svg width="63" height="63" viewBox="0 0 63 63" fill="none" xmlns="http://www.w3.org/2000/svg">
<path d="M29.283 42.818C28.5707 42.818 27.9375 42.5014 27.5418 42.0266L15.5907 29.0466C14.7201 28.097 14.7994 26.5931 15.749 25.7225C16.6987 24.8519 18.2026 24.9311 19.0732 25.8808L29.3621 37.0403L57.8546 8.627C58.8043 7.67731 60.3082 7.67731 61.1788 8.627C62.1285 9.57669 62.1285 11.0805 61.1788 11.9511L30.9452 42.1057C30.5493 42.5806 29.9162 42.818 29.283 42.818Z" fill="white"/>
<path d="M31.5001 63C14.167 63 0 48.833 0 31.5001C0 14.1672 14.167 0 31.5001 0C32.8456 0 33.8744 1.02892 33.8744 2.3743C33.8744 3.71969 32.8455 4.74861 31.5001 4.74861C16.7789 4.74861 4.74876 16.7787 4.74876 31.4999C4.74876 46.2211 16.7789 58.2512 31.5001 58.2512C46.2213 58.2512 58.2514 46.2211 58.2514 31.4999C58.2514 30.1544 59.2803 29.1256 60.6257 29.1256C61.9711 29.1256 63 30.1545 63 31.4999C63 48.833 48.833 63 31.5001 63Z" fill="white"/>
</svg>
