<svg width="12" height="12" viewBox="0 0 12 12" fill="none" xmlns="http://www.w3.org/2000/svg">
<path fill-rule="evenodd" clip-rule="evenodd" d="M0.386765 0.38676C0.902451 -0.128921 1.73854 -0.12892 2.25423 0.386762L5.9949 4.1274L9.73557 0.386762C10.2513 -0.12892 11.0873 -0.128921 11.603 0.38676C12.1187 0.902443 12.1187 1.73853 11.603 2.25421L7.86237 5.99484L11.5916 9.724C12.1072 10.2397 12.1072 11.0758 11.5916 11.5914C11.0759 12.1071 10.2398 12.1071 9.72409 11.5914L5.9949 7.86229L2.26571 11.5914C1.75003 12.1071 0.913933 12.1071 0.398247 11.5914C-0.117439 11.0758 -0.117439 10.2397 0.398247 9.724L4.12744 5.99484L0.386765 2.25421C-0.128921 1.73853 -0.128922 0.902443 0.386765 0.38676Z" fill="#941E2E"/>
</svg>
