<svg width="14" height="12" viewBox="0 0 14 12" fill="none" xmlns="http://www.w3.org/2000/svg">
<path fill-rule="evenodd" clip-rule="evenodd" d="M12.6137 0.387516C12.0973 -0.128521 11.2599 -0.128521 10.7434 0.387516L6.99734 4.13033L3.2548 0.387823C2.73853 -0.128434 1.90151 -0.128433 1.38524 0.387824C0.868981 0.904082 0.868981 1.7411 1.38524 2.25736L5.12699 5.99907L1.39164 9.73119C0.87516 10.2472 0.875159 11.0839 1.39164 11.5999C1.90813 12.116 2.74551 12.116 3.26199 11.5999L6.99654 7.8686L10.733 11.605C11.2493 12.1213 12.0863 12.1213 12.6026 11.605C13.1188 11.0888 13.1188 10.2518 12.6026 9.7355L8.86689 5.99987L12.6137 2.25625C13.1302 1.74021 13.1302 0.903553 12.6137 0.387516Z" fill="black"/>
</svg>
