<svg width="24" height="24" viewBox="0 0 24 24" fill="none" xmlns="http://www.w3.org/2000/svg">
<g clip-path="url(#clip0)">
<path d="M23.4124 2.18762C23.0207 1.79599 22.5501 1.59998 21.9999 1.59998H2C1.45001 1.59998 0.979313 1.79599 0.587421 2.18762C0.195749 2.57938 0 3.05003 0 3.60006V17.2002C0 17.7503 0.195749 18.2209 0.587421 18.6128C0.979313 19.0044 1.45001 19.2001 2 19.2001H8.80011C8.80011 19.5167 8.73339 19.842 8.60003 20.1751C8.46676 20.5084 8.3334 20.7999 8.20004 21.0499C8.06685 21.3001 8.00017 21.4832 8.00017 21.5998C8.00017 21.8164 8.07929 22.0043 8.23765 22.1622C8.39592 22.3208 8.58344 22.4002 8.80011 22.4002H15.2001C15.4168 22.4002 15.6043 22.3208 15.7626 22.1622C15.9211 22.0043 16.0002 21.8164 16.0002 21.5998C16.0002 21.4917 15.9334 21.3103 15.8001 21.0562C15.6667 20.8022 15.5334 20.506 15.4002 20.1689C15.2668 19.8313 15.2001 19.5084 15.2001 19.2001H22.0003C22.5502 19.2001 23.0208 19.0044 23.4124 18.6128C23.8042 18.221 24 17.7504 24 17.2002V3.60006C24.0002 3.05003 23.8042 2.57938 23.4124 2.18762ZM22.4 14.0001C22.4 14.1085 22.3605 14.2021 22.2813 14.2814C22.2021 14.3603 22.1083 14.3999 21.9999 14.3999H2C1.89173 14.3999 1.79795 14.3603 1.71879 14.2814C1.63968 14.2018 1.60005 14.1085 1.60005 14.0001V3.60006C1.60005 3.4917 1.63954 3.39801 1.71879 3.31885C1.79799 3.23983 1.89177 3.20012 2 3.20012H22.0002C22.1084 3.20012 22.2024 3.23969 22.2813 3.31885C22.3605 3.39805 22.4 3.49175 22.4 3.60006V14.0001Z" fill="#354F52"/>
</g>
<defs>
<clipPath id="clip0">
<rect width="24" height="24" fill="white"/>
</clipPath>
</defs>
</svg>
