<svg width="22" height="22" viewBox="0 0 22 22" fill="none" xmlns="http://www.w3.org/2000/svg">
<path d="M10.2049 17.0455C10.3094 17.1499 10.4334 17.2328 10.5699 17.2894C10.7064 17.3459 10.8527 17.375 11.0004 17.375C11.1482 17.375 11.2945 17.3459 11.431 17.2894C11.5675 17.2328 11.6915 17.1499 11.796 17.0455L16.0386 12.8029C16.2495 12.5919 16.3681 12.3057 16.3681 12.0074C16.3681 11.709 16.2495 11.4229 16.0386 11.2119C15.8276 11.0009 15.5414 10.8824 15.2431 10.8824C14.9447 10.8824 14.6586 11.0009 14.4476 11.2119L12.1254 13.534V1.25C12.1254 0.951631 12.0069 0.665483 11.7959 0.454505C11.585 0.243526 11.2988 0.125 11.0004 0.125C10.7021 0.125 10.4159 0.243526 10.2049 0.454505C9.99397 0.665483 9.87544 0.951631 9.87544 1.25V13.534L7.5533 11.2119C7.34232 11.0009 7.05617 10.8824 6.75781 10.8824C6.45944 10.8824 6.17329 11.0009 5.96231 11.2119C5.75134 11.4229 5.63281 11.709 5.63281 12.0074C5.63281 12.3057 5.75134 12.5919 5.96231 12.8029L10.2049 17.0455Z" fill="white"/>
<path d="M20.75 9.875C20.4516 9.875 20.1655 9.99353 19.9545 10.2045C19.7435 10.4155 19.625 10.7016 19.625 11V19.625H2.375V11C2.375 10.7016 2.25647 10.4155 2.0455 10.2045C1.83452 9.99353 1.54837 9.875 1.25 9.875C0.951631 9.875 0.665483 9.99353 0.454505 10.2045C0.243526 10.4155 0.125 10.7016 0.125 11V20C0.125 20.4973 0.322544 20.9742 0.674175 21.3258C1.02581 21.6775 1.50272 21.875 2 21.875H20C20.4973 21.875 20.9742 21.6775 21.3258 21.3258C21.6775 20.9742 21.875 20.4973 21.875 20V11C21.875 10.7016 21.7565 10.4155 21.5455 10.2045C21.3345 9.99353 21.0484 9.875 20.75 9.875Z" fill="white"/>
</svg>
