<svg width="63" height="63" viewBox="0 0 63 63" fill="none" xmlns="http://www.w3.org/2000/svg">
<path d="M31.5001 63C14.167 63 0 48.833 0 31.5001C0 14.1672 14.167 0 31.5001 0C32.8456 0 33.8744 1.02892 33.8744 2.3743C33.8744 3.71969 32.8455 4.74861 31.5001 4.74861C16.7789 4.74861 4.74876 16.7787 4.74876 31.4999C4.74876 46.2211 16.7789 58.2512 31.5001 58.2512C46.2213 58.2512 58.2514 46.2211 58.2514 31.4999C58.2514 30.1544 59.2803 29.1256 60.6257 29.1256C61.9711 29.1256 63 30.1545 63 31.4999C63 48.833 48.833 63 31.5001 63Z" fill="#D80027"/>
<path d="M42 21L22 41" stroke="#D80027" stroke-width="4" stroke-linecap="round" stroke-linejoin="round"/>
<path d="M22 21L42 41" stroke="#D80027" stroke-width="4" stroke-linecap="round" stroke-linejoin="round"/>
</svg>
