<svg width="13" height="20" viewBox="0 0 13 20" fill="none" xmlns="http://www.w3.org/2000/svg">
<path d="M10.625 0H1.875C0.820312 0 0 0.859375 0 1.875V18.125C0 19.1797 0.820312 20 1.875 20H10.625C11.6406 20 12.5 19.1797 12.5 18.125V1.875C12.5 0.859375 11.6406 0 10.625 0ZM6.25 18.75C5.54688 18.75 5 18.2031 5 17.5C5 16.8359 5.54688 16.25 6.25 16.25C6.91406 16.25 7.5 16.8359 7.5 17.5C7.5 18.2031 6.91406 18.75 6.25 18.75ZM10.625 14.5312C10.625 14.8047 10.3906 15 10.1562 15H2.34375C2.07031 15 1.875 14.8047 1.875 14.5312V2.34375C1.875 2.10938 2.07031 1.875 2.34375 1.875H10.1562C10.3906 1.875 10.625 2.10938 10.625 2.34375V14.5312Z" fill="#354F52"/>
</svg>
