<svg width="20" height="20" viewBox="0 0 20 20" fill="none" xmlns="http://www.w3.org/2000/svg">
<path fill-rule="evenodd" clip-rule="evenodd" d="M16.8707 3.08215H19.2177C19.6433 3.08215 20 3.4221 20 3.84136V19.2295C20 19.6601 19.6433 20 19.2177 20H2.34699C1.70272 20 1.11597 19.7394 0.69029 19.3201C0.264611 18.9122 0 18.3343 0 17.6997V2.31161C0 1.67705 0.264611 1.09915 0.69029 0.679887C1.11597 0.260623 1.70272 0 2.34699 0H16.0884C16.5255 0 16.8707 0.339943 16.8707 0.770538V3.08215ZM1.56478 2.32297C1.56478 2.52693 1.65682 2.70824 1.79488 2.85554C1.93293 2.99152 2.12852 3.08217 2.34711 3.08217H15.3061V1.5411H2.34711C2.12852 1.5411 1.93293 1.62042 1.79488 1.76773C1.64531 1.9037 1.56478 2.09634 1.56478 2.31164V2.32297ZM1.56478 4.48722V17.6997C1.56478 17.9037 1.64531 18.0963 1.79488 18.2323C1.93293 18.3796 2.12852 18.4589 2.34711 18.4589H18.4355V4.61187H16.0885H2.34711C2.07099 4.61187 1.80638 4.56654 1.56478 4.48722Z" fill="#354F52"/>
</svg>
